<svg version="1.1" xmlns="http://www.w3.org/2000/svg" xmlns:xlink="http://www.w3.org/1999/xlink" width="96px" height="96px" viewBox="0,0,256,256"><defs><linearGradient x1="25.193" y1="19.887" x2="32.706" y2="44.278" gradientUnits="userSpaceOnUse" id="color-1"><stop offset="0" stop-color="#0176d0"></stop><stop offset="1" stop-color="#16538c"></stop></linearGradient><linearGradient x1="12.177" y1="3.749" x2="26.673" y2="27.335" gradientUnits="userSpaceOnUse" id="color-2"><stop offset="0" stop-color="#33bef0"></stop><stop offset="1" stop-color="#22a5e2"></stop></linearGradient></defs><g fill="none" fill-rule="nonzero" stroke="none" stroke-width="1" stroke-linecap="butt" stroke-linejoin="miter" stroke-miterlimit="10" stroke-dasharray="" stroke-dashoffset="0" font-family="none" font-size="none" style="mix-blend-mode: normal"><g transform="scale(5.33333,5.33333)"><path d="M16,20h24c1.105,0 2,0.895 2,2v14c0,1.105 -0.895,2 -2,2h-1v6.082c0,0.553 -0.724,0.76 -1.016,0.291l-3.984,-6.373h-18c-1.105,0 -2,-0.895 -2,-2v-14c0,-1.105 0.895,-2 2,-2z" fill="url(#color-1)"></path><path d="M33,25h-19v-5h21v3c0,1.105 -0.895,2 -2,2z" fill="#000000" opacity="0.05"></path><path d="M32.5,24.5h-18.5v-4.5h20.5v2.5c0,1.105 -0.895,2 -2,2z" fill="#000000" opacity="0.07"></path><path d="M32,6h-24c-1.105,0 -2,0.895 -2,2v14c0,1.105 0.895,2 2,2h1v6.257c0,0.502 0.658,0.691 0.924,0.265l4.076,-6.522h18c1.105,0 2,-0.895 2,-2v-14c0,-1.105 -0.895,-2 -2,-2z" fill="url(#color-2)"></path><path d="M12.5,15h15c0.828,0 1.5,-0.672 1.5,-1.5v-1c0,-0.828 -0.672,-1.5 -1.5,-1.5h-15c-0.828,0 -1.5,0.672 -1.5,1.5v1c0,0.828 0.672,1.5 1.5,1.5z" fill="#000000" opacity="0.05"></path><path d="M12.5,14.5h15c0.552,0 1,-0.448 1,-1v-1c0,-0.552 -0.448,-1 -1,-1h-15c-0.552,0 -1,0.448 -1,1v1c0,0.552 0.448,1 1,1z" fill="#000000" opacity="0.07"></path><path d="M28,12.5v1c0,0.276 -0.224,0.5 -0.5,0.5h-15c-0.276,0 -0.5,-0.224 -0.5,-0.5v-1c0,-0.276 0.224,-0.5 0.5,-0.5h15c0.276,0 0.5,0.224 0.5,0.5z" fill="#ffffff"></path><path d="M12.5,19h13c0.828,0 1.5,-0.672 1.5,-1.5v-1c0,-0.828 -0.672,-1.5 -1.5,-1.5h-13c-0.828,0 -1.5,0.672 -1.5,1.5v1c0,0.828 0.672,1.5 1.5,1.5z" fill="#000000" opacity="0.05"></path><path d="M12.5,18.5h13c0.552,0 1,-0.448 1,-1v-1c0,-0.552 -0.448,-1 -1,-1h-13c-0.552,0 -1,0.448 -1,1v1c0,0.552 0.448,1 1,1z" fill="#000000" opacity="0.07"></path><path d="M26,16.5v1c0,0.276 -0.224,0.5 -0.5,0.5h-13c-0.276,0 -0.5,-0.224 -0.5,-0.5v-1c0,-0.276 0.224,-0.5 0.5,-0.5h13c0.276,0 0.5,0.224 0.5,0.5z" fill="#ffffff"></path></g></g></svg>