<svg version="1.1" xmlns="http://www.w3.org/2000/svg" xmlns:xlink="http://www.w3.org/1999/xlink" width="30" height="30" viewBox="0,0,256,256"><g fill="none" fill-rule="nonzero" stroke="none" stroke-width="1" stroke-linecap="butt" stroke-linejoin="miter" stroke-miterlimit="10" stroke-dasharray="" stroke-dashoffset="0" font-family="none" font-size="none" style="mix-blend-mode: normal"><g transform="scale(0.5,0.5)"><path d="M281.6,423.7c-0.6,-4 -2.3,-9.5 -6.5,-11.1c-3.4,-1.4 -7.3,2.8 -9.2,5c-6.3,7.3 -11.5,16.7 -14.3,26.1c0.6,1.2 0.7,2.7 0.1,4.2c-2.4,6.2 6.4,10.1 11.2,10.9c4.4,0.8 8.2,0 11.2,-3.5c6.9,-8.1 9.2,-21.1 7.5,-31.6zM199.1,413.7c-0.3,-14.2 -5.9,-30.5 -15,-41.6c-2.4,-2.9 -7.4,-7 -11.2,-5.4c-3.4,1.5 -5,7.7 -5.7,11.5c-2.3,11.5 -1.8,23.1 -1.8,34.7c0,0.4 0,0.8 -0.1,1.2c7.8,6.3 15.8,13.5 26.6,11.5c2,-0.4 3.5,-1.2 4.6,-2.3c0.8,-3 1.7,-6 2.7,-9c-0.1,-0.3 -0.1,-0.5 -0.1,-0.6zM237.8,419.8c-0.6,-5 -1.2,-10 -2.1,-15c-0.6,-3.7 -1.6,-10.7 -6.4,-11.4c-5,-0.7 -9.4,3.9 -12.1,7.6c-3.3,4.5 -5.7,9.6 -7.6,14.9c-0.1,2.2 -0.5,4.3 -1.1,6.4c-0.6,2 -1.4,3.8 -2.4,5.3c-0.1,0.6 -0.3,1.2 -0.4,1.7c4.9,4.9 11.2,9.1 17.9,11c5,1.4 13.7,3.5 15.1,-3.7c1,-5.5 -0.2,-11.2 -0.9,-16.8zM315.9,453.4c-0.6,-4.3 -3.6,-18.7 -11.1,-14.2c-6,3.6 -11.2,10 -14.9,16.2c0.7,1 1.1,2.3 0.9,3.8c-1.2,8.2 14.1,10 19.5,9.3c2.7,-0.3 5.6,-0.9 6.1,-4c0.7,-3.7 0,-7.4 -0.5,-11.1zM453.8,148.2c-3.3,-4.2 -6.7,-8.3 -10.1,-12.4c-3.6,-4.4 -7.2,-9.9 -12.3,-12.6c-9.5,-5 -18,2.4 -24.6,8.9c-1.6,1.5 -3.5,1.8 -5.2,1.4c-4,3.6 -7.7,7.8 -11.6,11.2c-8.6,7.4 -16.5,15.6 -24.7,23.5c-12.7,12.2 -26.2,28.8 -44.4,32.6c-9.3,2 -18.1,1.3 -27.4,-0.7c-10,-2.1 -20.3,-4.7 -30.6,-2.8c-16.2,2.9 -31.9,12.4 -42.3,25.2c-14.5,17.8 -17.8,41.7 -8.1,62.6c4,8.6 12.9,15.1 21.7,7.8c7.1,-5.9 8.5,-17.2 8.5,-25.8c0.1,-19.1 10.3,-36.5 29.9,-40.5c18.5,-3.8 36.8,5.7 47.6,20.4c0.1,0.2 0.3,0.4 0.4,0.6c0.3,0.2 0.8,0.4 1.3,0.6c1.3,0.5 2.5,1 3.8,1.4c4.1,1.6 8.2,3.3 12.4,4.7c10.8,3.7 21.6,7.2 31.8,12.5c10.4,5.5 20.4,11.6 30.1,18.4c4.4,3 8.9,6 13.3,9.2c0,-0.2 0,-0.4 0.1,-0.6c3.1,-19.3 18.8,-31.7 33.7,-42.4c15.4,-11 34.1,-23.1 34.3,-44.5c0.2,-22.2 -14.3,-41.9 -27.6,-58.7z" fill="#fcbf95"></path><path d="M417.3,312.6c-5.2,-6.8 -12.6,-11.2 -19.4,-16c-18.5,-13.3 -37.9,-23.8 -59.5,-31.1c-7.4,-2.5 -14.9,-5.1 -22,-8.2c-2.4,-1 -5.3,-3.5 -6.1,-6.1c-7.9,-9.7 -20.2,-16.2 -32.9,-14.7c-13.4,1.6 -22.3,11.8 -23.8,25c-1.7,14.2 -0.4,32 -14.3,40.9c-14.4,9.2 -29.3,1.7 -36,-12.6c-9.3,-20 -9.2,-44.5 2.2,-63.6c12.1,-20.2 34.7,-37 58.6,-39.4c7.7,-0.8 15.3,0 22.8,1.5c4.7,0.9 9.6,2.3 14.4,3.1c-1.9,-1.3 -4.1,-2.3 -5.2,-3c-3.9,-2.1 -8.1,-4.1 -12.1,-5.9c-12.1,-5.5 -25,-8.1 -38.2,-5.7c-25.4,4.5 -46.9,20.4 -70.3,30.3c-2.7,1.2 -4.9,-0.1 -6,-2.1c-6.7,-1.2 -12.8,-5.3 -18.3,-9c-7.1,-4.8 -13.9,-9.8 -21.2,-14.2c-10.3,-6.2 -21.2,-11.3 -31.6,-17.2c-7.2,-4.1 -14.9,-8.1 -20.6,-14.1c-1,-0.8 -1.7,-1.8 -2.5,-2.9c-0.5,-0.6 -0.8,-1.3 -0.9,-1.9c-8.2,-1.1 -15.8,2.7 -22,9.7c-7.1,7.9 -12.3,17.4 -16.3,27.2c-5.3,12.8 -11.9,25.1 -16.5,38.3c-4.6,13.1 -7.5,27.3 -1.3,40.4c5,10.7 14.3,19 24.3,25c10.6,6.4 22.1,10.6 33.3,15.7c12.7,5.9 25.2,12.5 36.6,20.6c11,7.8 22,16.9 28.6,28.9c3.6,6.5 6.5,13.3 9.4,20.1c1.4,3.3 2.7,8.1 5,11.6c0.8,-7 2.6,-13.8 6.2,-19.3c3.8,-5.7 10.4,-9.2 17.3,-6.9c7.7,2.5 12.9,7.4 17,14.2c4.9,8 8.7,16.8 11,25.9c0,0.1 0.1,0.3 0.1,0.4c2.2,-3.3 4.8,-6.3 7.8,-8.8c5.4,-4.5 13.9,-7.5 20.6,-3.7c6.4,3.7 8.9,10.2 10.2,17.2c1.3,7.1 2.2,14.4 3.1,21.6c0,0.2 0.1,0.4 0.1,0.6c0.2,-0.4 0.5,-0.8 0.7,-1.2c3.9,-6.7 8.8,-14.7 15.9,-18.4c15.9,-8.3 26.3,8.4 26.9,22.6c0.1,2.7 0,5.5 -0.2,8.5c4.6,-4.3 9.9,-7.3 15.7,-7.2c13.7,0.2 17.7,16.4 18.9,27.7c0.4,0.1 0.8,0.2 1.2,0.2c1.5,0 3,0 4.5,-0.2c2.1,-0.2 5.6,-0.3 7.3,-1.7c1,-0.8 -1.8,-7 -2.4,-8.1c-1.4,-2.5 -2.9,-4.9 -4.3,-7.3c-3.7,-6.1 -7.6,-12.1 -12.6,-17.3c-4.3,-4.5 -10,-10.2 -16.7,-10.5c-6.7,-0.3 -7.5,-10.7 -0.8,-10.4c10.9,0.4 19.4,7.4 26.4,15.3c6.4,7.2 12.3,15.7 16.7,24.4c1.1,2.2 2.2,4.8 2.9,7.4c0,0 0,0 0.1,0c11.2,-0.1 20.2,-2.1 28.9,-9.6c0.3,-0.3 0.7,-0.5 1,-0.7c-0.1,-0.8 0,-1.6 0.4,-2.5c6,-15.5 -6.1,-27.5 -17.8,-35.9c-12.3,-8.8 -26.3,-14.9 -38.5,-23.8c-5.5,-4 1.5,-11.8 6.9,-7.9c14.5,10.5 38.7,20.7 52,35.8c0.1,-0.1 0.2,-0.1 0.4,-0.2c0.8,-0.3 1.5,-0.5 2.3,-0.9v0c0,0 0.1,0 0.1,-0.1c0.2,-0.1 0.4,-0.3 0.6,-0.4c0.1,-0.1 0.5,-0.5 0.6,-0.5c0,-0.1 0.1,-0.1 0.1,-0.2c0.5,-0.6 0.9,-1.2 1.4,-1.8c0.8,-1.2 2.2,-1.7 3.6,-1.8c0.8,-0.9 1.7,-1.8 2.5,-2.8c1.7,-2.1 3.5,-4.2 5,-6.4c4.9,-7.1 -1.5,-15.2 -6.4,-20.5c-10.5,-11.2 -24.5,-18.4 -33.4,-31.2c-3.8,-5.6 4.8,-11.4 8.7,-5.8c5.8,8.3 14,14 21.8,20.2c5.3,4.3 10.2,9 14.3,14.4c0.6,-1.5 2,-2.5 4.2,-2.5c6.6,0.2 9.9,-4.2 11.7,-10.2c1.9,-6.3 3.6,-13.5 3.7,-20c0,-7.4 -1.3,-14.4 -5.9,-20.3z" fill="#fcbf95"></path><path d="M490.8,195.1c-4.4,-23.7 -20.9,-43.7 -35.7,-61.9c-7.3,-8.9 -14.3,-19.4 -26.3,-22c-7.6,-1.6 -14.6,1.6 -20.8,6c-0.2,0.1 -0.5,0.1 -0.7,0.2c-11.6,4.9 -20.6,15.9 -29.6,24.4c-12.2,11.4 -24.1,23.3 -36.4,34.6c-8,7.4 -16.2,13 -26.4,14.8c-3.2,-7.3 -12.8,-11.9 -19.4,-15c-13.1,-6.1 -25.8,-11.1 -40.5,-11.1c-28.7,-0.1 -53.7,18.5 -79,30c-0.8,-0.4 -1.7,-0.6 -2.8,-0.6c-6.5,0.3 -13.6,-5.5 -18.6,-9c-6.1,-4.3 -12.2,-8.4 -18.5,-12.4c-9.5,-6 -19.9,-10.3 -29.5,-16.1c-4.8,-2.8 -10.3,-5.4 -15.1,-8.7c-0.2,-0.1 -0.5,-0.3 -0.7,-0.5c-0.7,-0.5 -1.4,-1 -2.1,-1.6c0.1,-0.1 0.1,-0.2 0.2,-0.3c-2.1,-2.3 -3.8,-4.9 -6.8,-6.2c-6.6,-3 -14,-4.4 -21.2,-3.5c-1.4,0.5 -2.8,1.1 -4.2,1.9c-9.4,5 -16.2,13.7 -21.7,22.6c-6,9.7 -10,20.5 -14.7,30.8c-6,13.2 -12.1,26.5 -15,40.8c-5.4,26.4 8.7,47.4 30,61.4c10.2,6.7 21.6,11 32.7,15.9c13,5.7 25.7,12.4 37.3,20.4c12.2,8.4 22.9,18.3 29.5,31.8c3.2,6.6 6.1,13.4 8.8,20.2c2.3,5.7 5.2,11.1 11,13.9v0c0,4.1 0.1,8 0.1,11.7c0,2 0.1,4 0.1,6c0,1.3 0.4,2.3 1,3.1c-0.3,1.6 0.1,3.3 1.8,4.6c9.6,7.7 18.6,15.1 31.6,14.9c2.7,0 5.1,-0.4 7.3,-1.2c0.1,0.1 0.2,0.1 0.3,0.2c0.2,0.2 0.3,0.5 0.6,0.7c8.7,9.5 30.4,22 43.6,14.2c0.4,14.2 20.1,23.8 33.1,17.9c2.5,-1.1 4.7,-2.7 6.7,-4.5c2.6,10.1 15,15.3 25.2,15.5c5.8,0.1 12.6,-0.6 16.8,-5c2,-2.1 3.2,-4.7 3.7,-7.4c5.6,0.7 12.1,-0.7 16.5,-2.4c3.4,-1.3 5.3,-3.5 6.2,-6.1c0.2,0 0.4,0 0.6,0c12.8,-0.1 24,-2.8 33.9,-11.3c1.4,-1.2 2,-2.9 1.9,-4.4c1.2,-0.3 2.3,-1.2 3,-2.8c4.2,-10.8 3.3,-19.8 -0.7,-27.6c1.9,-0.9 3.7,-2 5.2,-3.4c4.6,-1.3 8.3,-7 11.1,-10.5c5.5,-7 9.1,-15.4 4.7,-24c-0.1,-0.2 -0.3,-0.5 -0.4,-0.7c15.6,0.4 20.9,-15.2 23.3,-27.9c2.9,-15.5 2.2,-30.6 -9.1,-42.7c-0.9,-1 -1.9,-1.9 -2.9,-2.8c1.8,-0.3 3.4,-1.6 3.8,-4c3.3,-20.8 24.5,-32 40,-43.4c8.5,-6.3 16.3,-13.2 21.8,-22.5c6.2,-10.5 7.6,-23.2 5.4,-35zM196.4,423.1c-1.1,1.1 -2.6,2 -4.6,2.3c-10.8,2 -18.8,-5.2 -26.6,-11.5c0.1,-0.4 0.1,-0.7 0.1,-1.2c0,-11.6 -0.5,-23.2 1.8,-34.7c0.8,-3.7 2.4,-10 5.7,-11.5c3.9,-1.7 8.9,2.4 11.2,5.4c9.1,11.1 14.7,27.4 15,41.6c0,0.2 0,0.3 0,0.5c-0.9,3.2 -1.8,6.2 -2.6,9.1zM238.6,436.7c-1.4,7.1 -10.1,5.1 -15.1,3.7c-6.7,-1.9 -13,-6 -17.9,-11c0.1,-0.6 0.3,-1.2 0.4,-1.7c1,-1.6 1.8,-3.4 2.4,-5.3c0.6,-2.1 1,-4.2 1.1,-6.4c1.9,-5.3 4.4,-10.4 7.6,-14.9c2.7,-3.7 7,-8.3 12.1,-7.6c4.7,0.6 5.7,7.7 6.4,11.4c0.8,5 1.4,10 2.1,15c0.8,5.5 2,11.2 0.9,16.8zM274,455.4c-3,3.5 -6.8,4.3 -11.2,3.5c-4.7,-0.9 -13.6,-4.8 -11.2,-10.9c0.6,-1.6 0.5,-3 -0.1,-4.2c2.8,-9.4 8,-18.8 14.3,-26.1c1.9,-2.2 5.8,-6.4 9.2,-5c4.2,1.7 5.9,7.2 6.5,11.1c1.8,10.4 -0.5,23.4 -7.5,31.6zM316.4,464.5c-0.5,3 -3.4,3.6 -6.1,4c-5.4,0.7 -20.7,-1 -19.5,-9.3c0.2,-1.5 -0.2,-2.8 -0.9,-3.8c3.7,-6.2 8.9,-12.6 14.9,-16.2c7.5,-4.5 10.5,9.9 11.1,14.2c0.5,3.7 1.2,7.4 0.5,11.1zM423,332.8c-0.1,6.6 -1.8,13.8 -3.7,20c-1.8,6 -5.1,10.4 -11.7,10.2c-2.2,-0.1 -3.6,1 -4.2,2.5c-4.1,-5.4 -8.9,-10.1 -14.3,-14.4c-7.8,-6.3 -16,-11.9 -21.8,-20.2c-3.8,-5.5 -12.5,0.3 -8.7,5.8c8.9,12.8 22.9,20 33.4,31.2c4.9,5.3 11.3,13.4 6.4,20.5c-1.5,2.2 -3.3,4.4 -5,6.4c-0.8,1 -1.6,1.9 -2.5,2.8c-1.4,0 -2.8,0.6 -3.6,1.8c-0.4,0.6 -0.9,1.2 -1.4,1.8c0,0.1 -0.1,0.1 -0.1,0.2c0,0 -0.4,0.4 -0.6,0.5c-0.2,0.1 -0.4,0.3 -0.6,0.4l-0.1,0.1v0c-0.7,0.3 -1.5,0.6 -2.3,0.9c-0.1,0 -0.2,0.1 -0.4,0.2c-13.3,-15.1 -37.5,-25.3 -52,-35.8c-5.4,-3.9 -12.4,3.9 -6.9,7.9c12.2,8.9 26.2,15 38.5,23.8c11.7,8.3 23.8,20.4 17.8,35.9c-0.3,0.9 -0.4,1.7 -0.4,2.5c-0.3,0.2 -0.7,0.4 -1,0.7c-8.6,7.5 -17.6,9.5 -28.9,9.6c0,0 0,0 -0.1,0c-0.7,-2.7 -1.8,-5.2 -2.9,-7.4c-4.4,-8.7 -10.3,-17.1 -16.7,-24.4c-7,-7.9 -15.4,-14.9 -26.4,-15.3c-6.7,-0.3 -5.9,10.2 0.8,10.4c6.7,0.3 12.4,6 16.7,10.5c4.9,5.1 8.9,11.2 12.6,17.3c1.5,2.4 3,4.8 4.3,7.3c0.6,1.1 3.4,7.3 2.4,8.1c-1.7,1.4 -5.2,1.5 -7.3,1.7c-1.5,0.2 -3,0.2 -4.5,0.2c-0.4,0 -0.8,-0.1 -1.2,-0.2c-1.1,-11.3 -5.2,-27.5 -18.9,-27.7c-5.8,-0.1 -11.1,2.9 -15.7,7.2c0.3,-3 0.3,-5.8 0.2,-8.5c-0.6,-14.2 -11,-30.9 -26.9,-22.6c-7.1,3.7 -12,11.8 -15.9,18.4c-0.2,0.4 -0.5,0.8 -0.7,1.2c0,-0.2 -0.1,-0.4 -0.1,-0.6c-0.9,-7.2 -1.7,-14.5 -3.1,-21.6c-1.3,-6.9 -3.8,-13.5 -10.2,-17.2c-6.6,-3.8 -15.2,-0.8 -20.6,3.7c-3,2.5 -5.6,5.5 -7.8,8.8c0,-0.1 -0.1,-0.3 -0.1,-0.4c-2.3,-9.1 -6.1,-17.9 -11,-25.9c-4.2,-6.8 -9.4,-11.7 -17,-14.2c-6.9,-2.2 -13.5,1.2 -17.3,6.9c-3.7,5.5 -5.4,12.3 -6.2,19.3c-2.3,-3.5 -3.5,-8.3 -5,-11.6c-2.9,-6.8 -5.8,-13.6 -9.4,-20.1c-6.6,-12 -17.6,-21.1 -28.6,-28.9c-11.5,-8.1 -23.9,-14.7 -36.6,-20.6c-11.2,-5.1 -22.7,-9.3 -33.3,-15.7c-10,-6 -19.3,-14.3 -24.3,-25c-6.1,-13.1 -3.2,-27.3 1.3,-40.4c4.6,-13.1 11.2,-25.4 16.5,-38.3c4.1,-9.8 9.2,-19.3 16.3,-27.2c6.2,-6.9 13.8,-10.7 22,-9.7c0.2,0.6 0.5,1.3 0.9,1.9c0.8,1.1 1.5,2.1 2.5,2.9c5.8,6 13.5,10.1 20.6,14.1c10.4,5.9 21.3,11 31.6,17.2c7.3,4.4 14.1,9.4 21.2,14.2c5.5,3.7 11.6,7.8 18.3,9c1.1,2 3.3,3.3 6,2.1c23.4,-9.9 44.9,-25.7 70.3,-30.3c13.2,-2.4 26.1,0.2 38.2,5.7c4.1,1.8 8.2,3.8 12.1,5.9c1.2,0.6 3.3,1.7 5.2,3c-4.9,-0.8 -9.7,-2.1 -14.4,-3.1c-7.5,-1.5 -15.2,-2.2 -22.8,-1.5c-23.9,2.4 -46.5,19.2 -58.6,39.4c-11.5,19.1 -11.6,43.6 -2.2,63.6c6.7,14.4 21.7,21.8 36,12.6c13.9,-8.9 12.7,-26.7 14.3,-40.9c1.6,-13.2 10.4,-23.4 23.8,-25c12.7,-1.5 25,5 32.9,14.7c0.9,2.6 3.7,5.1 6.1,6.1c7.2,3.1 14.6,5.7 22,8.2c21.6,7.3 40.9,17.8 59.5,31.1c6.8,4.9 14.3,9.3 19.4,16c4.8,6 6.1,13 5.9,20.3zM447.1,251.6c-15,10.7 -30.6,23.1 -33.7,42.4c0,0.2 -0.1,0.4 -0.1,0.6c-4.3,-3.2 -8.9,-6.2 -13.3,-9.2c-9.6,-6.7 -19.7,-12.9 -30.1,-18.4c-10.1,-5.4 -21,-8.8 -31.8,-12.5c-4.2,-1.4 -8.3,-3.1 -12.4,-4.7c-1.3,-0.5 -2.5,-1 -3.8,-1.4c-0.5,-0.2 -1,-0.4 -1.3,-0.6c-0.1,-0.2 -0.2,-0.4 -0.4,-0.6c-10.8,-14.7 -29.2,-24.2 -47.6,-20.4c-19.6,4 -29.8,21.4 -29.9,40.5c-0.1,8.6 -1.4,19.9 -8.5,25.8c-8.8,7.2 -17.7,0.8 -21.7,-7.8c-9.8,-21 -6.4,-44.8 8.1,-62.6c10.4,-12.7 26.1,-22.2 42.3,-25.2c10.3,-1.8 20.6,0.7 30.6,2.8c9.3,1.9 18,2.7 27.4,0.7c18.1,-3.9 31.7,-20.5 44.4,-32.6c8.2,-7.8 16.1,-16.1 24.7,-23.5c4,-3.4 7.6,-7.6 11.6,-11.2c1.7,0.5 3.6,0.2 5.2,-1.4c6.6,-6.5 15.1,-14 24.6,-8.9c5.2,2.7 8.7,8.2 12.3,12.6c3.4,4.1 6.8,8.3 10.1,12.4c13.3,16.8 27.8,36.5 27.6,58.9c-0.2,21.2 -18.9,33.2 -34.3,44.3z" fill="#000000"></path></g></g></svg>