<svg version="1.1" xmlns="http://www.w3.org/2000/svg" xmlns:xlink="http://www.w3.org/1999/xlink" width="24px" height="24px" viewBox="0,0,256,256"><g fill="none" fill-rule="nonzero" stroke="none" stroke-width="1" stroke-linecap="butt" stroke-linejoin="miter" stroke-miterlimit="10" stroke-dasharray="" stroke-dashoffset="0" font-family="none" font-size="none" style="mix-blend-mode: normal"><g transform="scale(2.56,2.56)"><path d="M51.893,40.292c7.753,0 7.766,-12.049 0,-12.049c-7.753,-0.001 -7.766,12.049 0,12.049z" fill="#fea919"></path><path d="M46.407,35.98c9.452,-3.996 13.868,6.217 15.818,13.326c1.682,6.134 9.593,5.281 11.619,0c6.185,-16.125 -17.63,-29.488 -30.973,-25.678c-16.387,4.68 -21.768,22.423 -17.974,37.563c1.884,7.517 13.508,4.332 11.619,-3.203c-1.959,-7.816 -0.868,-17.542 7.006,-21.699c3.596,-1.899 7.281,-1.959 10.875,-0.049c3.286,1.746 9.464,5.595 7.827,9.862c3.873,0 7.746,0 11.619,0c-2.113,-7.705 -4.991,-15.382 -12.208,-19.668c-6.709,-3.985 -14.31,-3.818 -21.31,-0.859c-3.02,1.277 -3.621,5.677 -2.161,8.243c1.777,3.123 5.263,3.421 8.243,2.162z" fill="#fea919"></path><path d="M25.156,57.749c5.964,0 5.974,-9.269 0,-9.269c-5.964,0 -5.974,9.269 0,9.269z" fill="#fea919"></path><path d="M78.253,51.466c-0.033,-0.094 -0.057,-0.189 -0.093,-0.283c-0.49,-1.277 -1.385,-2.319 -2.51,-2.902c-0.276,-5.281 -1.527,-10.421 -4.248,-14.818c-6.059,-9.791 -17.496,-13.383 -27.892,-8.702c-0.13,0.059 -0.247,0.125 -0.368,0.188c-12.437,2.223 -17.831,12.39 -18.415,23.601c-1.505,0.084 -2.975,0.769 -3.601,2.212c-1.868,4.302 -1.392,9.231 2.153,12.576c0.499,0.471 1.106,0.811 1.753,1.035c0.946,5.221 3.044,10.178 6.739,13.969c0.941,1.479 2.114,2.844 3.588,4.058c4.456,3.668 9.791,4.959 15.516,4.51c9.09,-0.712 15.772,-6.173 19.738,-13.668c1.951,-2.651 3.301,-5.735 4.122,-9.038c1.783,-1.114 2.98,-2.931 3.674,-5.26c0.716,-2.405 0.971,-5.235 -0.156,-7.478z" fill="#fea919"></path><path d="M71.368,28.863c-2.728,-4.109 -7.388,-9.942 -12.965,-8.12c-0.239,0.078 -0.457,0.19 -0.665,0.317c-0.66,0.194 -1.309,0.471 -1.938,0.83c-0.396,-0.805 -0.978,-1.563 -1.774,-2.214c-2.547,-2.087 -5.834,-1.989 -9.016,-1.202c-6.043,0.345 -12.988,3.815 -17.128,7.455c-5.138,4.517 -8.089,11.093 -7.595,17.946c0.034,0.471 0.174,0.896 0.379,1.278c-0.074,0.641 -0.135,1.286 -0.17,1.935c-0.122,2.258 1.592,3.248 3.293,3.081c0.001,0.724 0.054,1.471 0.147,2.238c0.491,4.026 6.715,4.265 6.488,0c-0.205,-3.865 3.568,-4.73 6.471,-6.035c2.896,-1.301 5.723,-2.713 8.434,-4.37c3.859,-2.358 7.448,-5.112 10.776,-8.158c1.17,1.439 2.378,2.846 3.661,4.193c0.517,0.543 1.387,1.263 2.346,2.082c0.811,0.811 1.659,1.586 2.529,2.318c1.065,1.088 1.95,2.229 2.276,3.321c-0.066,0.725 -0.083,1.459 -0.029,2.248c0.036,0.529 0.2,0.997 0.438,1.41c-0.003,0.55 -0.01,1.1 -0.034,1.652c-0.157,3.629 5.564,4.444 6.372,0.862c0.175,-0.777 0.32,-1.554 0.463,-2.332c1.714,-0.001 3.441,-1.397 3.324,-3.243c-0.394,-6.211 -2.646,-12.315 -6.083,-17.492z" fill="#733d7e"></path><path d="M59.876,73.039c-1.094,-4.375 -5.387,-7.135 -9.759,-7.166c-4.556,-0.032 -9.654,2.513 -11.363,6.895c-0.455,1.166 0.5,2.543 1.618,2.85c0.527,0.145 1.013,0.095 1.44,-0.085c0.337,0.2 0.728,0.318 1.154,0.322c4.892,0.039 9.784,0.078 14.676,0.117c1.535,0.012 2.595,-1.488 2.234,-2.933z" fill="#a42a2b"></path><path d="M47.89,14.46c0,0 -0.457,0.058 -1.313,0.166c-0.862,0.107 -2.13,0.298 -3.752,0.618c-3.24,0.631 -7.926,1.804 -13.404,4.168c-2.734,1.184 -5.657,2.671 -8.653,4.521c-0.736,0.482 -1.504,0.945 -2.249,1.469c-0.375,0.259 -0.753,0.519 -1.134,0.782c-0.396,0.284 -0.803,0.598 -1.183,0.941c-0.762,0.69 -1.496,1.483 -2.058,2.557c-0.27,0.543 -0.491,1.173 -0.546,1.887c-0.058,0.708 0.085,1.496 0.423,2.147c0.334,0.676 0.865,1.229 1.414,1.618c0.552,0.392 1.123,0.655 1.676,0.858c1.121,0.393 2.118,0.594 3.206,0.785c2.145,0.354 4.344,0.42 6.531,0.329c4.371,-0.22 8.725,-0.831 13.217,-1.646c8.95,-1.667 17.252,-4.335 24.482,-7.438c3.612,-1.543 7.144,-3.356 9.738,-6.066c1.252,-1.331 2.433,-2.859 2.811,-4.787c0.191,-0.946 0.107,-2.029 -0.357,-2.915c-0.441,-0.901 -1.189,-1.535 -1.921,-1.955c-1.492,-0.823 -3.002,-1.016 -4.333,-1.169c-1.35,-0.147 -2.628,-0.191 -3.818,-0.166c-2.383,0.047 -4.407,0.371 -6.026,0.741c-1.621,0.368 -2.839,0.787 -3.653,1.094c-0.814,0.306 -1.231,0.49 -1.231,0.49c0,0 0.436,-0.134 1.275,-0.35c0.837,-0.216 2.082,-0.504 3.703,-0.709c1.618,-0.208 3.615,-0.338 5.909,-0.187c1.146,0.074 2.365,0.217 3.638,0.459c1.272,0.239 2.593,0.555 3.646,1.251c1.052,0.691 1.54,1.757 1.19,2.988c-0.318,1.25 -1.3,2.462 -2.472,3.556c-2.354,2.196 -5.607,3.706 -9.181,5.058c-7.187,2.739 -15.317,5.129 -24.027,6.752c-4.339,0.791 -8.678,1.446 -12.76,1.739c-2.038,0.13 -4.019,0.118 -5.904,-0.131c-0.921,-0.126 -1.911,-0.307 -2.68,-0.549c-0.785,-0.249 -1.328,-0.605 -1.522,-0.978c-0.228,-0.395 -0.227,-0.856 0.047,-1.506c0.286,-0.628 0.793,-1.274 1.369,-1.844c0.291,-0.29 0.596,-0.552 0.924,-0.814c0.353,-0.271 0.703,-0.541 1.051,-0.809c0.689,-0.544 1.405,-1.03 2.088,-1.537c2.787,-1.952 5.523,-3.58 8.1,-4.926c5.162,-2.688 9.658,-4.256 12.799,-5.191c1.571,-0.472 2.809,-0.793 3.652,-0.991c0.841,-0.202 1.288,-0.31 1.288,-0.31z" fill="#000000"></path><path d="M25.071,33.742c0,0 -0.076,0.096 -0.223,0.283c-0.15,0.187 -0.372,0.466 -0.633,0.856c-0.526,0.774 -1.257,1.975 -1.897,3.672c-0.653,1.689 -1.206,3.87 -1.454,6.468c-0.12,1.299 -0.171,2.7 -0.1,4.194c0.037,0.747 0.101,1.516 0.215,2.309c0.055,0.397 0.129,0.799 0.221,1.212c0.044,0.192 0.112,0.448 0.159,0.599c0.034,0.116 0.072,0.23 0.128,0.333c0.021,0.036 0.044,0.073 0.081,0.097c0.002,0.028 -0.065,0.059 -0.093,0.091c-0.075,0.063 -0.147,0.134 -0.212,0.208l-0.079,0.097c-0.046,0.062 -0.101,0.148 -0.147,0.224c-0.093,0.151 -0.187,0.342 -0.239,0.473c-0.118,0.288 -0.256,0.572 -0.359,0.872c-0.218,0.596 -0.411,1.217 -0.543,1.864c-0.272,1.291 -0.366,2.682 -0.176,4.099c0.198,1.413 0.672,2.85 1.46,4.161c0.41,0.642 0.859,1.279 1.406,1.837c0.246,0.273 0.57,0.603 0.943,0.86c0.183,0.13 0.374,0.249 0.571,0.356l0.299,0.151l0.132,0.062c0.185,0.027 0.193,0.198 0.241,0.377c0.114,0.439 0.229,0.882 0.345,1.327c0.223,0.917 0.449,1.847 0.678,2.788c0.118,0.479 0.231,0.947 0.381,1.473c0.025,0.1 0.11,0.348 0.161,0.472l0.15,0.361l0.32,0.717c0.44,0.954 0.952,1.888 1.517,2.799c1.144,1.827 2.49,3.524 4.004,5.145c1.518,1.623 3.248,3.161 5.253,4.431c8.06,5.342 20.237,4.247 28.097,-2.909c2.581,-2.349 4.705,-5.111 6.235,-8.094l0.57,-1.118l0.009,-0.017c-0.021,0.041 -0.024,0.046 -0.021,0.04v-0.001c0.003,-0.006 -0.014,0.022 0.009,-0.016l0.08,-0.138l0.16,-0.276l0.305,-0.558c0.396,-0.747 0.75,-1.508 1.067,-2.276c0.317,-0.768 0.595,-1.543 0.84,-2.321c0.122,-0.389 0.239,-0.778 0.344,-1.169l0.155,-0.585c0.008,-0.037 0.003,-0.026 0.006,-0.042c-0.002,-0.012 0.01,-0.013 0.016,-0.02c0.01,-0.008 -0.01,0.005 0.035,-0.023c0.1,-0.061 0.2,-0.121 0.296,-0.19c0.392,-0.259 0.751,-0.559 1.093,-0.872c0.671,-0.639 1.234,-1.366 1.676,-2.127c0.89,-1.539 1.345,-3.131 1.624,-4.712c0.272,-1.594 0.309,-3.285 -0.135,-4.956c-0.121,-0.415 -0.26,-0.827 -0.446,-1.225c-0.138,-0.303 -0.071,-0.115 -0.17,-0.403c-0.057,-0.183 -0.161,-0.406 -0.251,-0.601c-0.194,-0.399 -0.423,-0.782 -0.69,-1.137c-0.133,-0.178 -0.276,-0.349 -0.426,-0.514l-0.195,-0.203l-0.035,-0.028c-0.025,-0.038 -0.137,-0.051 -0.082,-0.103c0.006,-0.022 0.01,-0.044 0.012,-0.068l0.027,-0.207c0.038,-0.304 0.061,-0.591 0.077,-0.874c0.029,-0.564 0.038,-1.112 0.024,-1.65c-0.019,-1.079 -0.105,-2.129 -0.225,-3.163c-0.248,-2.065 -0.653,-4.057 -1.239,-5.952c-0.586,-1.893 -1.34,-3.696 -2.327,-5.323c-0.487,-0.816 -1.036,-1.585 -1.646,-2.288c-0.572,-0.655 -1.134,-1.299 -1.688,-1.932c-1.102,-1.273 -2.198,-2.517 -3.383,-3.613c-1.179,-1.094 -2.465,-2.058 -3.908,-2.639c-1.431,-0.596 -3.018,-0.708 -4.37,-0.345c-0.338,0.099 -0.667,0.15 -1,0.352l-0.359,0.193l-0.445,0.16c-0.339,0.13 -0.493,0.206 -0.69,0.307c-0.188,0.087 -0.39,0.24 -0.556,0.303c-0.176,-0.343 -0.344,-0.596 -0.651,-0.953c-0.338,-0.393 -0.71,-0.731 -1.095,-1.018c-0.768,-0.573 -1.586,-0.958 -2.37,-1.199c-1.579,-0.481 -2.977,-0.417 -4.059,-0.309c-1.089,0.121 -1.897,0.327 -2.434,0.47c-0.534,0.153 -0.809,0.231 -0.809,0.231c0,0 0.281,-0.056 0.824,-0.165c0.545,-0.1 1.363,-0.241 2.438,-0.281c1.067,-0.03 2.425,0.014 3.864,0.564c0.715,0.274 1.44,0.678 2.104,1.244c0.33,0.281 0.64,0.603 0.914,0.966c0.309,0.384 0.639,1.055 0.903,1.665c0.292,-0.115 0.638,-0.332 0.978,-0.487c0.338,-0.169 0.737,-0.317 0.973,-0.386l0.429,-0.123l0.482,-0.209c0.209,-0.129 0.522,-0.161 0.805,-0.225c1.154,-0.228 2.4,-0.064 3.576,0.501c2.389,1.136 4.347,3.576 6.394,6.186c0.522,0.659 1.052,1.33 1.59,2.011c0.5,0.634 0.951,1.331 1.35,2.077c0.81,1.484 1.428,3.151 1.895,4.916c0.468,1.765 0.773,3.637 0.933,5.561c0.077,0.961 0.121,1.939 0.105,2.913c-0.004,0.488 -0.029,0.973 -0.069,1.444c-0.02,0.235 -0.048,0.466 -0.081,0.679c0.001,0.047 -0.135,0.347 0.136,0.549c0.256,0.231 0.17,0.408 0.172,0.586c-0.006,0.092 -0.011,0.189 -0.022,0.244c-0.002,0.075 0.017,0.172 0.024,0.264c0.019,0.253 0.038,0.508 0.058,0.768c0.135,0.096 0.252,0.205 0.368,0.314c0.112,0.104 0.109,0.114 0.167,0.175c0.081,0.096 0.16,0.196 0.233,0.301c0.147,0.209 0.273,0.437 0.38,0.674c0.052,0.127 0.1,0.225 0.143,0.382c-0.003,0.054 0.212,0.564 0.226,0.582c0.109,0.248 0.188,0.516 0.261,0.789c0.261,1.107 0.231,2.38 -0.025,3.663c-0.258,1.293 -0.679,2.588 -1.325,3.636c-0.322,0.53 -0.707,0.996 -1.14,1.396c-0.223,0.192 -0.449,0.379 -0.698,0.535c-0.06,0.043 -0.124,0.079 -0.188,0.115c-0.116,0.074 -0.309,0.174 -0.469,0.256l-0.493,0.263c-0.071,0.053 -0.19,0.068 -0.222,0.152l-0.069,0.272l-0.276,1.075l-0.149,0.527l-0.326,1.047c-0.23,0.694 -0.486,1.38 -0.774,2.052c-0.287,0.672 -0.604,1.331 -0.952,1.972l-0.622,1.095l-0.52,0.995c-1.39,2.659 -3.285,5.077 -5.53,7.127c-3.419,3.067 -7.684,4.93 -12.038,5.382c-4.403,0.521 -8.659,-0.367 -12.174,-2.531c-1.766,-1.058 -3.353,-2.385 -4.788,-3.832c-1.438,-1.451 -2.75,-3.001 -3.827,-4.6c-0.538,-0.805 -1.028,-1.627 -1.454,-2.468l-0.311,-0.633l-0.147,-0.319c-0.043,-0.104 -0.04,-0.089 -0.085,-0.225c-0.136,-0.415 -0.273,-0.893 -0.405,-1.353c-0.268,-0.935 -0.532,-1.858 -0.794,-2.77c-0.142,-0.464 -0.283,-0.924 -0.423,-1.381c-0.108,-0.33 -0.233,-0.74 -0.448,-1.015l-0.191,-0.187l-0.05,-0.045l-0.025,-0.022c0.024,-0.033 -0.071,0.057 0.05,-0.076l-0.013,-0.009l-0.106,-0.071c-0.144,-0.094 -0.316,-0.173 -0.498,-0.235c-0.136,-0.039 -0.31,-0.107 -0.376,-0.135l-0.188,-0.084c-0.123,-0.059 -0.241,-0.125 -0.353,-0.198c-0.226,-0.139 -0.413,-0.312 -0.653,-0.554c-0.469,-0.433 -0.85,-0.933 -1.211,-1.436c-0.687,-1.031 -1.133,-2.184 -1.36,-3.357c-0.218,-1.176 -0.203,-2.37 -0.026,-3.507c0.084,-0.57 0.225,-1.124 0.388,-1.663c0.076,-0.271 0.187,-0.529 0.276,-0.792c0.05,-0.145 0.083,-0.22 0.136,-0.322l0.085,-0.146c0.058,-0.086 0.127,-0.165 0.2,-0.242c0.03,-0.251 0.074,-0.449 0.126,-0.607c0.017,-0.079 0.073,-0.153 0.063,-0.211c-0.044,-0.044 -0.076,-0.12 -0.108,-0.193c-0.027,-0.111 -0.114,-0.213 -0.08,-0.349l0.065,-0.211c0.031,-0.071 0.042,-0.139 0,-0.204c-0.085,-0.23 -0.125,-0.36 -0.183,-0.553c-0.102,-0.36 -0.192,-0.727 -0.266,-1.095c-0.15,-0.735 -0.256,-1.466 -0.335,-2.179c-0.155,-1.428 -0.191,-2.787 -0.156,-4.052c0.078,-2.532 0.468,-4.691 0.987,-6.386c0.506,-1.703 1.134,-2.939 1.595,-3.747c0.228,-0.407 0.426,-0.702 0.56,-0.9c0.137,-0.199 0.204,-0.301 0.204,-0.301z" fill="#000000"></path><path d="M88.614,22.705c-0.467,-0.725 -1.394,-1.197 -2.259,-0.919c-0.366,0.118 -0.733,0.235 -1.099,0.353c-0.079,-0.329 -0.158,-0.658 -0.236,-0.988c-0.465,-1.942 -3.351,-1.868 -3.857,0c-0.228,0.841 -0.456,1.682 -0.684,2.523c-0.991,0.318 -1.982,0.637 -2.972,0.955c-0.81,0.26 -1.509,1.031 -1.468,1.928c0.037,0.818 0.587,1.78 1.468,1.929c0.531,0.09 1.06,0.19 1.588,0.297c-0.035,0.129 -0.07,0.258 -0.105,0.387c-0.054,0.201 -0.065,0.409 -0.052,0.617c-0.249,0.428 -0.487,0.862 -0.71,1.302c-0.473,0.932 -0.276,2.212 0.717,2.736c0.911,0.482 2.231,0.279 2.736,-0.717c0.421,-0.828 0.883,-1.635 1.393,-2.411c0.169,-0.258 0.348,-0.509 0.527,-0.76c0.045,0.014 0.091,0.027 0.136,0.041c0.16,0.258 0.319,0.515 0.479,0.773c0.269,0.435 0.698,0.782 1.195,0.919c0.266,0.083 0.532,0.095 0.797,0.036c0.266,-0.012 0.514,-0.091 0.744,-0.237c0.427,-0.275 0.803,-0.685 0.919,-1.195c0.024,-0.177 0.048,-0.354 0.071,-0.532c-0.001,-0.361 -0.092,-0.698 -0.273,-1.01c-0.364,-0.711 -0.727,-1.422 -1.091,-2.133c0.553,-0.514 1.125,-1.008 1.722,-1.471c0.667,-0.515 0.749,-1.749 0.314,-2.423z" fill="#f2b71f"></path><path d="M22.896,8.891c-0.448,-0.028 -0.897,-0.044 -1.346,-0.063c-0.179,-0.366 -0.362,-0.731 -0.562,-1.085c-0.418,-0.74 -1.431,-1.187 -2.259,-0.919c-0.885,0.286 -1.401,1.013 -1.468,1.928c-0.001,0.008 -0.002,0.016 -0.002,0.023c-0.985,0.018 -1.97,0.049 -2.954,0.109c-0.851,0.051 -1.727,0.582 -1.929,1.468c-0.18,0.792 0.095,1.903 0.919,2.259c0.928,0.4 1.856,0.8 2.784,1.2c-0.049,0.129 -0.089,0.26 -0.141,0.388c-0.02,0.048 -0.021,0.108 -0.034,0.162c-0.785,0.693 -0.755,2.128 0.004,2.824c0.842,0.773 1.986,0.738 2.828,0c0.576,-0.504 1.152,-1.008 1.727,-1.513c0.665,0.222 1.32,0.219 1.931,-0.253c0.649,-0.501 0.875,-1.276 0.72,-2.068c0.398,-0.349 0.797,-0.697 1.195,-1.046c0.598,-0.524 0.705,-1.495 0.414,-2.185c-0.32,-0.76 -1.014,-1.178 -1.827,-1.229z" fill="#f2b71f"></path><path d="M16.136,48.016c-0.289,-0.317 -0.577,-0.634 -0.866,-0.951c-0.101,-0.46 -0.215,-0.916 -0.347,-1.367c0.236,-0.422 0.467,-0.848 0.718,-1.262c0.443,-0.729 0.329,-1.835 -0.313,-2.424c-0.529,-0.486 -1.415,-0.762 -2.117,-0.48c-0.443,-0.659 -1.414,-1.019 -2.164,-0.776c-0.864,0.28 -1.433,1.016 -1.468,1.929c-0.02,0.51 -0.066,1.016 -0.12,1.524c-0.861,0.627 -1.721,1.254 -2.582,1.88c-0.699,0.509 -1.209,1.362 -0.919,2.259c0.274,0.848 1.019,1.458 1.929,1.468c0.128,0.001 0.257,0.003 0.385,0.005c0.062,0.157 0.146,0.304 0.244,0.445c-0.142,0.406 -0.294,0.808 -0.424,1.217c-0.315,0.998 0.371,2.227 1.397,2.46c1.09,0.248 2.123,-0.328 2.46,-1.397c0.237,-0.751 0.494,-1.496 0.775,-2.232c0.01,-0.026 0.021,-0.051 0.03,-0.076c0.184,0.202 0.369,0.405 0.553,0.607c0.181,0.195 0.396,0.333 0.644,0.413c0.238,0.125 0.495,0.183 0.771,0.172c0.275,0.01 0.532,-0.047 0.771,-0.172c0.248,-0.081 0.463,-0.219 0.644,-0.413c0.35,-0.381 0.61,-0.881 0.586,-1.414c-0.024,-0.177 -0.048,-0.354 -0.071,-0.532c-0.097,-0.339 -0.268,-0.633 -0.516,-0.883z" fill="#f2b71f"></path></g></g></svg>