<?xml version="1.0" encoding="UTF-8"?>
<svg xmlns="http://www.w3.org/2000/svg" xmlns:xlink="http://www.w3.org/1999/xlink" width="40px" height="40px" viewBox="0 0 40 40" version="1.1">
<g id="surface1">
<path style=" stroke:none;fill-rule:nonzero;fill:rgb(58.823529%,58.823529%,58.823529%);fill-opacity:1;" d="M 5 8.332031 C 4.398438 8.324219 3.839844 8.640625 3.535156 9.160156 C 3.234375 9.679688 3.234375 10.320312 3.535156 10.839844 C 3.839844 11.359375 4.398438 11.675781 5 11.667969 L 35 11.667969 C 35.601562 11.675781 36.160156 11.359375 36.464844 10.839844 C 36.765625 10.320312 36.765625 9.679688 36.464844 9.160156 C 36.160156 8.640625 35.601562 8.324219 35 8.332031 Z M 5 18.332031 C 4.398438 18.324219 3.839844 18.640625 3.535156 19.160156 C 3.234375 19.679688 3.234375 20.320312 3.535156 20.839844 C 3.839844 21.359375 4.398438 21.675781 5 21.667969 L 35 21.667969 C 35.601562 21.675781 36.160156 21.359375 36.464844 20.839844 C 36.765625 20.320312 36.765625 19.679688 36.464844 19.160156 C 36.160156 18.640625 35.601562 18.324219 35 18.332031 Z M 5 28.332031 C 4.398438 28.324219 3.839844 28.640625 3.535156 29.160156 C 3.234375 29.679688 3.234375 30.320312 3.535156 30.839844 C 3.839844 31.359375 4.398438 31.675781 5 31.667969 L 35 31.667969 C 35.601562 31.675781 36.160156 31.359375 36.464844 30.839844 C 36.765625 30.320312 36.765625 29.679688 36.464844 29.160156 C 36.160156 28.640625 35.601562 28.324219 35 28.332031 Z M 5 28.332031 "/>
</g>
</svg>
