<svg version="1.1" xmlns="http://www.w3.org/2000/svg" xmlns:xlink="http://www.w3.org/1999/xlink" width="30px" height="30px" viewBox="0,0,256,256"><g fill="none" fill-rule="nonzero" stroke="none" stroke-width="1" stroke-linecap="butt" stroke-linejoin="miter" stroke-miterlimit="10" stroke-dasharray="" stroke-dashoffset="0" font-family="none" font-size="none" style="mix-blend-mode: normal"><g transform="scale(2.56,2.56)"><path d="M87.215,56.71c1.135,-2.155 1.785,-4.605 1.785,-7.21c0,-6.621 -4.159,-12.257 -10.001,-14.478c0,-0.007 0.001,-0.014 0.001,-0.022c0,-11.598 -9.402,-21 -21,-21c-9.784,0 -17.981,6.701 -20.313,15.757c-1.476,-0.485 -3.049,-0.757 -4.687,-0.757c-7.692,0 -14.023,5.793 -14.89,13.252c-5.204,1.101 -9.11,5.717 -9.11,11.248c0,6.351 5.149,11.5 11.5,11.5c0.177,0 0.352,-0.012 0.526,-0.022c-0.004,0.175 -0.026,0.346 -0.026,0.522c0,11.322 9.178,20.5 20.5,20.5c6.437,0 12.175,-2.972 15.934,-7.614c2.178,2.225 5.206,3.614 8.566,3.614c4.65,0 8.674,-2.65 10.666,-6.518c1.052,0.335 2.171,0.518 3.334,0.518c6.075,0 11,-4.925 11,-11c0,-3.311 -1.47,-6.273 -3.785,-8.29z" fill="#c7ede9"></path><path d="M62.125,38.5c0,0 -3.64,0 -6.125,0c-2.485,0 -4.5,-2.015 -4.5,-4.5c0,-2.333 1.782,-4.229 4.055,-4.455c-0.022,-0.181 -0.055,-0.358 -0.055,-0.545c0,-2.485 2.015,-4.5 4.5,-4.5c1.438,0 2.703,0.686 3.527,1.736c0.14,-2.636 2.302,-4.736 4.973,-4.736c2.761,0 5,2.239 5,5c0,0.446 -0.077,0.87 -0.187,1.282c0.642,-0.777 1.6,-1.282 2.687,-1.282c1.781,0 3.234,1.335 3.455,3.055c0.181,-0.022 0.358,-0.055 0.545,-0.055c2.485,0 4.5,2.015 4.5,4.5c0,2.485 -2.015,4.5 -4.5,4.5c-2.485,0 -9.5,0 -9.5,0h-5.375v0.5h-3z" fill="#fdfcef"></path><path d="M68.5,21c3.033,0 5.5,2.467 5.5,5.5c0,0.016 0,0.031 0,0.047c0.602,-0.355 1.29,-0.547 2,-0.547c1.831,0 3.411,1.261 3.858,3.005c0.047,-0.003 0.094,-0.005 0.142,-0.005c2.757,0 5,2.243 5,5c0,2.757 -2.243,5 -5,5h-14.875c-0.276,0 -0.5,-0.224 -0.5,-0.5c0,-0.276 0.224,-0.5 0.5,-0.5h14.875c2.206,0 4,-1.794 4,-4c0,-2.206 -1.794,-4 -4,-4c-0.117,0 -0.23,0.017 -0.343,0.032l-0.141,0.019c-0.021,0.003 -0.041,0.004 -0.062,0.004c-0.246,0 -0.462,-0.185 -0.495,-0.437c-0.191,-1.493 -1.463,-2.618 -2.959,-2.618c-0.885,0 -1.723,0.401 -2.301,1.1c-0.098,0.118 -0.241,0.182 -0.386,0.182c-0.078,0 -0.156,-0.018 -0.228,-0.056c-0.209,-0.107 -0.314,-0.346 -0.254,-0.573c0.115,-0.435 0.169,-0.801 0.169,-1.153c0,-2.481 -2.019,-4.5 -4.5,-4.5c-2.381,0 -4.347,1.872 -4.474,4.263c-0.011,0.208 -0.15,0.387 -0.349,0.45c-0.05,0.016 -0.101,0.024 -0.152,0.024c-0.15,0 -0.296,-0.069 -0.392,-0.192c-0.771,-0.982 -1.912,-1.545 -3.133,-1.545c-2.206,0 -4,1.794 -4,4c0,0.117 0.017,0.23 0.032,0.343l0.019,0.141c0.016,0.134 -0.022,0.268 -0.106,0.373c-0.084,0.105 -0.207,0.172 -0.34,0.185c-2.056,0.205 -3.605,1.907 -3.605,3.958c0,2.206 1.794,4 4,4h6.125c0.276,0 0.5,0.224 0.5,0.5c0,0.276 -0.224,0.5 -0.5,0.5h-6.125c-2.757,0 -5,-2.243 -5,-5c0,-2.397 1.689,-4.413 4.003,-4.877c-0.002,-0.041 -0.003,-0.082 -0.003,-0.123c0,-2.757 2.243,-5 5,-5c1.176,0 2.293,0.416 3.183,1.164c0.598,-2.404 2.762,-4.164 5.317,-4.164z" fill="#472b29"></path><path d="M70,28c1.403,0 2.609,0.999 2.913,2.341c0.367,-0.222 0.786,-0.341 1.212,-0.341c1.202,0 2.198,0.897 2.353,2.068c0.203,-0.046 0.396,-0.068 0.585,-0.068c1.529,0 2.811,1.2 2.918,2.732c0.009,0.138 -0.095,0.258 -0.232,0.268c-0.006,0 -0.012,0 -0.018,0c-0.13,0 -0.24,-0.101 -0.249,-0.232c-0.089,-1.271 -1.151,-2.268 -2.419,-2.268c-0.229,0 -0.47,0.042 -0.738,0.127c-0.022,0.007 -0.045,0.01 -0.067,0.01c-0.055,0 -0.11,-0.02 -0.156,-0.054c-0.064,-0.046 -0.102,-0.128 -0.102,-0.208c0,-1.034 -0.841,-1.875 -1.875,-1.875c-0.447,0 -0.885,0.168 -1.231,0.473c-0.047,0.041 -0.106,0.063 -0.165,0.063c-0.032,0 -0.063,-0.006 -0.093,-0.019c-0.088,-0.035 -0.148,-0.117 -0.155,-0.212c-0.104,-1.293 -1.193,-2.305 -2.481,-2.305c-0.208,0 -0.425,0.034 -0.682,0.107c-0.023,0.007 -0.047,0.01 -0.07,0.01c-0.109,0 -0.207,-0.073 -0.239,-0.182c-0.038,-0.133 0.039,-0.271 0.172,-0.309c0.302,-0.086 0.563,-0.126 0.819,-0.126zM56.117,29.5c1.326,0 2.508,0.897 2.874,2.182c0.038,0.133 -0.039,0.271 -0.172,0.309c-0.024,0.006 -0.047,0.009 -0.069,0.009c-0.109,0 -0.209,-0.072 -0.24,-0.182c-0.305,-1.07 -1.289,-1.818 -2.393,-1.818c-0.117,0 -0.23,0.014 -0.342,0.029c-0.012,0.002 -0.023,0.003 -0.035,0.003c-0.121,0 -0.229,-0.092 -0.246,-0.217c-0.019,-0.137 0.077,-0.263 0.214,-0.281c0.134,-0.018 0.27,-0.034 0.409,-0.034z" fill="#472b29"></path><path d="M82.405,61h-9.905c-0.276,0 -0.5,-0.224 -0.5,-0.5c0,-0.276 0.224,-0.5 0.5,-0.5h9.905c0.276,0 0.5,0.224 0.5,0.5c0,0.276 -0.223,0.5 -0.5,0.5zM85.5,61h-1c-0.276,0 -0.5,-0.224 -0.5,-0.5c0,-0.276 0.224,-0.5 0.5,-0.5h1c0.276,0 0.5,0.224 0.5,0.5c0,0.276 -0.223,0.5 -0.5,0.5zM90.491,63h-8.991c-0.276,0 -0.5,-0.224 -0.5,-0.5c0,-0.276 0.224,-0.5 0.5,-0.5h8.991c0.276,0 0.5,0.224 0.5,0.5c0,0.276 -0.224,0.5 -0.5,0.5zM79.5,63h-1c-0.276,0 -0.5,-0.224 -0.5,-0.5c0,-0.276 0.224,-0.5 0.5,-0.5h1c0.276,0 0.5,0.224 0.5,0.5c0,0.276 -0.223,0.5 -0.5,0.5zM76.5,63h-2c-0.276,0 -0.5,-0.224 -0.5,-0.5c0,-0.276 0.224,-0.5 0.5,-0.5h2c0.276,0 0.5,0.224 0.5,0.5c0,0.276 -0.223,0.5 -0.5,0.5zM82.5,65h-2c-0.276,0 -0.5,-0.224 -0.5,-0.5c0,-0.276 0.224,-0.5 0.5,-0.5h2c0.276,0 0.5,0.224 0.5,0.5c0,0.276 -0.224,0.5 -0.5,0.5zM85.5,56c-0.177,0 -0.823,0 -1,0c-0.276,0 -0.5,0.224 -0.5,0.5c0,0.276 0.224,0.5 0.5,0.5c0.177,0 0.823,0 1,0c0.276,0 0.5,-0.224 0.5,-0.5c0,-0.276 -0.224,-0.5 -0.5,-0.5zM85.5,58c-0.177,0 -4.823,0 -5,0c-0.276,0 -0.5,0.224 -0.5,0.5c0,0.276 0.224,0.5 0.5,0.5c0.177,0 4.823,0 5,0c0.276,0 0.5,-0.224 0.5,-0.5c0,-0.276 -0.224,-0.5 -0.5,-0.5zM90.5,60c-0.177,0 -2.823,0 -3,0c-0.276,0 -0.5,0.224 -0.5,0.5c0,0.276 0.224,0.5 0.5,0.5c0.177,0 2.823,0 3,0c0.276,0 0.5,-0.224 0.5,-0.5c0,-0.276 -0.224,-0.5 -0.5,-0.5z" fill="#ffffff"></path><g fill="#ffffff"><path d="M26.5,72h-10c-0.276,0 -0.5,-0.224 -0.5,-0.5c0,-0.276 0.224,-0.5 0.5,-0.5h10c0.276,0 0.5,0.224 0.5,0.5c0,0.276 -0.224,0.5 -0.5,0.5zM30.5,72h-2c-0.276,0 -0.5,-0.224 -0.5,-0.5c0,-0.276 0.224,-0.5 0.5,-0.5h2c0.276,0 0.5,0.224 0.5,0.5c0,0.276 -0.224,0.5 -0.5,0.5zM35.5,74h-10c-0.276,0 -0.5,-0.224 -0.5,-0.5c0,-0.276 0.224,-0.5 0.5,-0.5h10c0.276,0 0.5,0.224 0.5,0.5c0,0.276 -0.223,0.5 -0.5,0.5zM23.5,74h-1c-0.276,0 -0.5,-0.224 -0.5,-0.5c0,-0.276 0.224,-0.5 0.5,-0.5h1c0.276,0 0.5,0.224 0.5,0.5c0,0.276 -0.224,0.5 -0.5,0.5zM20.375,74h-1.875c-0.276,0 -0.5,-0.224 -0.5,-0.5c0,-0.276 0.224,-0.5 0.5,-0.5h1.875c0.276,0 0.5,0.224 0.5,0.5c0,0.276 -0.224,0.5 -0.5,0.5zM29.5,70h-5c-0.276,0 -0.5,-0.224 -0.5,-0.5c0,-0.276 0.224,-0.5 0.5,-0.5h5c0.276,0 0.5,0.224 0.5,0.5c0,0.276 -0.223,0.5 -0.5,0.5zM26.5,76h-2c-0.276,0 -0.5,-0.224 -0.5,-0.5c0,-0.276 0.224,-0.5 0.5,-0.5h2c0.276,0 0.5,0.224 0.5,0.5c0,0.276 -0.224,0.5 -0.5,0.5z"></path></g><g><path d="M51.154,73.392l-8.463,2.647l0.026,-29.06l16.599,0.016l-0.026,29.049z" fill="#f15b6c"></path><path d="M43.416,47.681l15.199,0.014l-0.024,27.385l-7.007,-2.285l-0.425,-0.139l-0.427,0.134l-7.34,2.296l0.024,-27.405M42.018,46.279l-0.028,30.713l9.16,-2.866l8.839,2.882l0.027,-30.713l-17.998,-0.016z" fill="#472b29"></path></g><g fill="#472b29"><path d="M45.5,72.75c-0.138,0 -0.25,-0.112 -0.25,-0.25v-1c0,-0.138 0.112,-0.25 0.25,-0.25c0.138,0 0.25,0.112 0.25,0.25v1c0,0.138 -0.112,0.25 -0.25,0.25z"></path></g><g fill="#472b29"><path d="M45.5,69.75c-0.138,0 -0.25,-0.112 -0.25,-0.25v-4c0,-0.138 0.112,-0.25 0.25,-0.25c0.138,0 0.25,0.112 0.25,0.25v4c0,0.138 -0.112,0.25 -0.25,0.25z"></path></g><g fill="#472b29"><path d="M56.5,73.75c-0.138,0 -0.25,-0.112 -0.25,-0.25v-4c0,-0.138 0.112,-0.25 0.25,-0.25c0.138,0 0.25,0.112 0.25,0.25v4c0,0.138 -0.112,0.25 -0.25,0.25z"></path></g><g><path d="M54.915,63.886c-0.309,0 -0.606,-0.068 -0.885,-0.203l-1.147,-0.555c-0.463,-0.225 -0.98,-0.343 -1.496,-0.343c-0.515,0 -1.032,0.118 -1.495,0.342l-1.147,0.556c-0.279,0.135 -0.577,0.203 -0.886,0.203c-0.601,0.001 -1.167,-0.263 -1.555,-0.722l-0.822,-0.974c-0.654,-0.773 -1.611,-1.218 -2.625,-1.218c0,0 -1.383,0.042 -1.384,0.042c-0.964,0 -1.766,-0.604 -2.016,-1.467l-0.355,-1.224c-0.294,-1.014 -1.024,-1.824 -2.002,-2.223l-1.179,-0.481c-0.861,-0.351 -1.375,-1.239 -1.248,-2.16l0.173,-1.263c0.144,-1.045 -0.193,-2.082 -0.924,-2.845l-0.882,-0.919c-0.644,-0.671 -0.751,-1.691 -0.261,-2.481l0.671,-1.082c0.557,-0.897 0.671,-1.982 0.313,-2.976l-0.432,-1.198c-0.315,-0.875 0.001,-1.851 0.771,-2.373l1.054,-0.716c0.873,-0.594 1.418,-1.537 1.496,-2.591l0.093,-1.271c0.068,-0.927 0.754,-1.689 1.669,-1.854l1.254,-0.227c1.04,-0.186 1.922,-0.827 2.42,-1.759l0.601,-1.121c0.355,-0.663 1.042,-1.074 1.794,-1.074c0.163,0 0.327,0.02 0.486,0.059l1.236,0.305c0.269,0.065 0.544,0.1 0.819,0.1c0.759,0 1.507,-0.257 2.107,-0.723l1.006,-0.78c0.361,-0.279 0.792,-0.428 1.248,-0.428c0.456,0 0.887,0.148 1.248,0.428l1.007,0.78c0.599,0.466 1.347,0.723 2.107,0.723c0.275,0 0.551,-0.034 0.819,-0.1l1.237,-0.305c0.159,-0.039 0.323,-0.059 0.486,-0.059c0.751,0 1.438,0.411 1.793,1.073l0.602,1.123c0.498,0.931 1.38,1.572 2.42,1.759l1.253,0.225c0.916,0.165 1.602,0.928 1.67,1.854l0.093,1.271c0.077,1.054 0.623,1.997 1.496,2.591l1.054,0.716c0.77,0.522 1.086,1.498 0.771,2.373l-0.432,1.198c-0.357,0.993 -0.244,2.077 0.313,2.975l0.672,1.083c0.49,0.79 0.383,1.811 -0.261,2.481l-0.881,0.919c-0.731,0.763 -1.068,1.8 -0.924,2.846l0.173,1.262c0.126,0.921 -0.387,1.81 -1.248,2.16l-1.18,0.481c-0.978,0.398 -1.707,1.209 -2.001,2.223l-0.355,1.224c-0.25,0.864 -1.054,1.468 -1.953,1.468l-1.448,-0.043c-1.014,0 -1.971,0.444 -2.625,1.219l-0.821,0.972c-0.387,0.461 -0.954,0.724 -1.555,0.724z" fill="#f9e65c"></path><path d="M51.387,26.944c0.299,0 0.582,0.097 0.819,0.281l1.006,0.781c0.722,0.56 1.622,0.868 2.535,0.868c0.332,0 0.665,-0.04 0.987,-0.12l1.237,-0.304c0.105,-0.026 0.212,-0.039 0.319,-0.039c0.493,0 0.943,0.27 1.176,0.705l0.601,1.123c0.6,1.121 1.663,1.893 2.914,2.117l1.253,0.225c0.601,0.108 1.051,0.608 1.096,1.217l0.093,1.27c0.093,1.268 0.749,2.404 1.801,3.119l1.053,0.715c0.505,0.343 0.713,0.984 0.506,1.558l-0.432,1.198c-0.431,1.196 -0.294,2.502 0.376,3.582l0.672,1.083c0.322,0.518 0.251,1.188 -0.171,1.627l-0.882,0.919c-0.88,0.917 -1.286,2.166 -1.113,3.425l0.173,1.262c0.083,0.604 -0.253,1.188 -0.819,1.417l-1.179,0.481c-1.177,0.48 -2.056,1.456 -2.41,2.677l-0.355,1.223c-0.164,0.566 -0.691,0.962 -1.323,0.962c-0.001,0 -0.001,0 -0.002,0l-1.273,-0.041l-0.131,-0.002c-1.221,0 -2.372,0.535 -3.159,1.467l-0.822,0.973c-0.254,0.301 -0.626,0.474 -1.021,0.474c-0.202,0 -0.397,-0.045 -0.58,-0.133l-1.147,-0.555c-0.558,-0.27 -1.181,-0.413 -1.801,-0.413c-0.62,0 -1.242,0.143 -1.801,0.413l-1.146,0.555c-0.183,0.088 -0.378,0.133 -0.58,0.133c-0.395,0 -0.767,-0.173 -1.021,-0.474l-0.822,-0.973c-0.787,-0.932 -1.939,-1.467 -3.159,-1.467l-0.131,0.002l-1.316,0.042c-0.59,0 -1.117,-0.396 -1.281,-0.963l-0.355,-1.223c-0.354,-1.221 -1.233,-2.197 -2.41,-2.677l-1.18,-0.481c-0.565,-0.23 -0.901,-0.813 -0.818,-1.417l0.173,-1.262c0.173,-1.26 -0.233,-2.508 -1.113,-3.425l-0.882,-0.919c-0.422,-0.439 -0.493,-1.109 -0.171,-1.627l0.671,-1.082c0.67,-1.08 0.808,-2.386 0.377,-3.582l-0.432,-1.198c-0.207,-0.574 0.001,-1.214 0.506,-1.557l1.054,-0.715c1.052,-0.715 1.708,-1.852 1.801,-3.119l0.093,-1.27c0.044,-0.608 0.495,-1.109 1.095,-1.217l1.253,-0.225c1.252,-0.224 2.314,-0.996 2.914,-2.117l0.601,-1.123c0.233,-0.435 0.684,-0.705 1.176,-0.705c0.107,0 0.214,0.013 0.319,0.039l1.237,0.304c0.323,0.08 0.655,0.12 0.988,0.12c0.913,0 1.814,-0.308 2.535,-0.868l1.006,-0.781c0.24,-0.185 0.523,-0.283 0.822,-0.283M51.387,25.544c-0.592,0 -1.183,0.192 -1.677,0.575l-1.006,0.781c-0.485,0.376 -1.076,0.574 -1.677,0.574c-0.218,0 -0.437,-0.026 -0.653,-0.079l-1.237,-0.304c-0.218,-0.054 -0.437,-0.08 -0.654,-0.08c-0.99,0 -1.926,0.541 -2.41,1.444l-0.601,1.123c-0.395,0.737 -1.105,1.252 -1.927,1.4l-1.254,0.225c-1.229,0.221 -2.153,1.247 -2.244,2.493l-0.093,1.27c-0.061,0.833 -0.5,1.593 -1.191,2.063l-1.054,0.715c-1.033,0.702 -1.46,2.015 -1.036,3.19l0.432,1.198c0.283,0.787 0.192,1.659 -0.249,2.369l-0.671,1.083c-0.659,1.061 -0.514,2.434 0.351,3.335l0.882,0.919c0.579,0.603 0.85,1.438 0.736,2.266l-0.173,1.262c-0.17,1.237 0.52,2.433 1.677,2.904l1.179,0.481c0.774,0.315 1.361,0.968 1.594,1.771l0.355,1.223c0.34,1.171 1.413,1.973 2.626,1.973c0.029,0 0.058,0 0.087,-0.001l1.273,-0.041c0.029,-0.001 0.058,-0.001 0.087,-0.001c0.804,0 1.569,0.354 2.09,0.97l0.822,0.973c0.533,0.631 1.304,0.97 2.091,0.97c0.403,0 0.809,-0.089 1.19,-0.273l1.146,-0.555c0.376,-0.182 0.784,-0.273 1.191,-0.273c0.407,0 0.815,0.091 1.191,0.273l1.146,0.555c0.381,0.184 0.787,0.273 1.19,0.273c0.786,0 1.558,-0.339 2.091,-0.97l0.822,-0.973c0.521,-0.617 1.286,-0.97 2.09,-0.97c0.029,0 0.058,0 0.087,0.001l1.273,0.041c0.029,0.001 0.058,0.001 0.087,0.001c1.213,0 2.286,-0.802 2.626,-1.973l0.355,-1.223c0.233,-0.803 0.82,-1.455 1.594,-1.771l1.179,-0.481c1.157,-0.471 1.847,-1.667 1.677,-2.904l-0.173,-1.262c-0.114,-0.828 0.157,-1.663 0.736,-2.266l0.882,-0.919c0.865,-0.901 1.009,-2.274 0.351,-3.335l-0.675,-1.084c-0.441,-0.71 -0.532,-1.583 -0.249,-2.369l0.432,-1.198c0.423,-1.175 -0.003,-2.488 -1.036,-3.19l-1.054,-0.715c-0.691,-0.47 -1.13,-1.229 -1.191,-2.063l-0.093,-1.27c-0.091,-1.246 -1.015,-2.271 -2.244,-2.493l-1.254,-0.225c-0.823,-0.147 -1.532,-0.663 -1.927,-1.4l-0.602,-1.122c-0.484,-0.903 -1.42,-1.444 -2.41,-1.444c-0.217,0 -0.436,0.026 -0.654,0.08l-1.236,0.304c-0.216,0.053 -0.435,0.079 -0.653,0.079c-0.601,0 -1.192,-0.198 -1.677,-0.574l-1.006,-0.781c-0.494,-0.383 -1.085,-0.575 -1.677,-0.575z" fill="#472b29"></path></g><g fill="#472b29"><path d="M65.314,41.596c-0.214,0 -0.412,-0.138 -0.478,-0.353c-0.063,-0.204 -0.13,-0.407 -0.202,-0.606c-0.278,-0.776 -0.629,-1.533 -1.043,-2.249c-0.138,-0.239 -0.056,-0.545 0.183,-0.683c0.238,-0.141 0.545,-0.057 0.683,0.183c0.443,0.768 0.82,1.579 1.119,2.411c0.077,0.215 0.149,0.432 0.216,0.649c0.081,0.265 -0.067,0.544 -0.331,0.625c-0.049,0.016 -0.099,0.023 -0.147,0.023zM37.121,42.613c-0.036,0 -0.072,-0.004 -0.108,-0.012c-0.27,-0.06 -0.44,-0.326 -0.38,-0.597c1.513,-6.841 7.718,-11.806 14.754,-11.806c4.324,0 8.449,1.853 11.317,5.083c0.217,0.244 0.426,0.495 0.626,0.754c0.17,0.218 0.13,0.532 -0.088,0.701c-0.217,0.17 -0.533,0.129 -0.701,-0.088c-0.188,-0.241 -0.382,-0.475 -0.585,-0.703c-2.678,-3.017 -6.53,-4.747 -10.569,-4.747c-6.571,0 -12.366,4.636 -13.778,11.022c-0.052,0.234 -0.258,0.393 -0.488,0.393zM51.387,60.327c-7.366,0 -13.626,-5.243 -14.885,-12.467c-0.047,-0.272 0.135,-0.531 0.407,-0.578c0.275,-0.052 0.531,0.134 0.579,0.406c1.175,6.744 7.021,11.639 13.9,11.639c7.78,0 14.109,-6.309 14.109,-14.063c0,-0.707 -0.053,-1.417 -0.158,-2.11c-0.041,-0.272 0.147,-0.527 0.42,-0.568c0.275,-0.041 0.528,0.146 0.569,0.42c0.112,0.741 0.168,1.502 0.168,2.259c0,8.304 -6.778,15.062 -15.109,15.062z"></path></g><g fill="#472b29"><path d="M45.984,35.824c-0.086,0 -0.17,-0.045 -0.216,-0.125c-0.069,-0.119 -0.028,-0.272 0.091,-0.342c0.588,-0.34 1.208,-0.628 1.843,-0.855c0.165,-0.058 0.329,-0.113 0.496,-0.164c0.135,-0.039 0.272,0.032 0.313,0.164c0.041,0.132 -0.033,0.272 -0.165,0.313c-0.161,0.05 -0.319,0.103 -0.476,0.158c-0.605,0.218 -1.198,0.492 -1.761,0.818c-0.039,0.022 -0.082,0.033 -0.125,0.033zM49.059,56.63c-0.018,0 -0.036,-0.002 -0.054,-0.006c-5.228,-1.157 -9.023,-5.899 -9.023,-11.277c0,-3.305 1.416,-6.457 3.885,-8.649c0.187,-0.166 0.379,-0.326 0.576,-0.479c0.109,-0.088 0.266,-0.064 0.351,0.044c0.084,0.109 0.064,0.267 -0.044,0.351c-0.188,0.146 -0.373,0.299 -0.551,0.457c-2.362,2.098 -3.717,5.114 -3.717,8.276c0,5.146 3.63,9.683 8.631,10.789c0.135,0.03 0.22,0.163 0.19,0.298c-0.026,0.117 -0.13,0.196 -0.244,0.196zM53.436,56.728c-0.119,0 -0.225,-0.086 -0.246,-0.207c-0.024,-0.136 0.067,-0.266 0.203,-0.289c5.281,-0.921 9.115,-5.498 9.115,-10.885c0,-6.092 -4.94,-11.048 -11.013,-11.048c-0.554,0 -1.11,0.041 -1.653,0.123c-0.133,0.029 -0.264,-0.072 -0.284,-0.21c-0.021,-0.137 0.073,-0.264 0.21,-0.284c0.567,-0.086 1.148,-0.129 1.727,-0.129c6.349,0 11.513,5.181 11.513,11.548c0,5.63 -4.007,10.415 -9.529,11.377c-0.014,0.003 -0.028,0.004 -0.043,0.004z"></path></g><g><path d="M27.5,56.5c0,0 -1.567,0 -3.5,0c-1.933,0 -3.5,-1.567 -3.5,-3.5c0,-1.781 1.335,-3.234 3.055,-3.455c-0.028,-0.179 -0.055,-0.358 -0.055,-0.545c0,-1.933 1.567,-3.5 3.5,-3.5c1.032,0 1.95,0.455 2.59,1.165c0.384,-1.808 1.987,-3.165 3.91,-3.165c2.209,0 4,1.791 4,4c0,0.191 -0.03,0.374 -0.056,0.558c0.428,-0.344 0.964,-0.558 1.556,-0.558c1.228,0 2.245,0.887 2.455,2.055c0.179,-0.028 0.358,-0.055 0.545,-0.055c1.933,0 3.5,1.567 3.5,3.5c0,1.933 -1.567,3.5 -3.5,3.5c-1.933,0 -7.5,0 -7.5,0v0.5h-7z" fill="#fdfcef"></path><path d="M25.75,52c0.138,0 0.25,-0.112 0.25,-0.25c0,-1.223 -0.995,-2.218 -2.218,-2.218c-0.034,0.009 -0.737,-0.001 -1.244,0.136c-0.133,0.036 -0.212,0.173 -0.176,0.306c0.036,0.134 0.173,0.213 0.306,0.176c0.444,-0.12 1.1,-0.12 1.113,-0.118c0.948,0 1.719,0.771 1.719,1.718c0,0.138 0.112,0.25 0.25,0.25zM32.5,56c-0.27614,0 -0.5,0.22386 -0.5,0.5c0,0.27614 0.22386,0.5 0.5,0.5c0.27614,0 0.5,-0.22386 0.5,-0.5c0,-0.27614 -0.22386,-0.5 -0.5,-0.5z" fill="#472b29"></path><path d="M24,57h3.5c0.276,0 0.5,-0.224 0.5,-0.5c0,-0.276 -0.224,-0.5 -0.5,-0.5h-3.5c-1.654,0 -3,-1.346 -3,-3c0,-1.496 1.125,-2.768 2.618,-2.959c0.134,-0.018 0.255,-0.088 0.336,-0.196c0.081,-0.108 0.115,-0.244 0.094,-0.377c-0.023,-0.154 -0.048,-0.308 -0.048,-0.468c0,-1.654 1.346,-3 3,-3c0.85,0 1.638,0.355 2.219,1c0.125,0.139 0.321,0.198 0.5,0.148c0.182,-0.049 0.321,-0.195 0.36,-0.379c0.341,-1.604 1.78,-2.769 3.421,-2.769c1.93,0 3.5,1.57 3.5,3.5c0,0.143 -0.021,0.28 -0.041,0.418c-0.029,0.203 0.063,0.438 0.242,0.54c0.179,0.102 0.396,0.118 0.556,-0.01c0.365,-0.293 0.794,-0.448 1.243,-0.448c0.966,0 1.792,0.691 1.963,1.644c0.048,0.267 0.296,0.446 0.569,0.405c0.154,-0.024 0.308,-0.049 0.468,-0.049c1.654,0 3,1.346 3,3c0,1.654 -1.346,3 -3,3h-7.5c-0.276,0 -0.5,0.224 -0.5,0.5c0,0.276 0.224,0.5 0.5,0.5h7.5c2.206,0 4,-1.794 4,-4c0,-2.206 -1.794,-4 -4,-4c-0.059,0 -0.116,0.002 -0.174,0.006c-0.414,-1.186 -1.537,-2.006 -2.826,-2.006c-0.349,0 -0.689,0.061 -1.011,0.18c-0.165,-2.333 -2.115,-4.18 -4.489,-4.18c-1.831,0 -3.466,1.127 -4.153,2.774c-0.68,-0.498 -1.502,-0.774 -2.347,-0.774c-2.206,0 -4,1.794 -4,4c0,0.048 0.001,0.095 0.004,0.142c-1.743,0.448 -3.004,2.027 -3.004,3.858c0,2.206 1.794,4 4,4z" fill="#472b29"></path><path d="M29.5,56c0.159,0 0.841,0 1,0c0.276,0 0.5,0.224 0.5,0.5c0,0.276 -0.224,0.5 -0.5,0.5c-0.159,0 -0.841,0 -1,0c-0.276,0 -0.5,-0.224 -0.5,-0.5c0,-0.276 0.224,-0.5 0.5,-0.5z" fill="#472b29"></path></g><g fill="#472b29"><path d="M56.5,67.75c-0.138,0 -0.25,-0.112 -0.25,-0.25v-2c0,-0.138 0.112,-0.25 0.25,-0.25c0.138,0 0.25,0.112 0.25,0.25v2c0,0.138 -0.112,0.25 -0.25,0.25z"></path></g></g></g></svg>