<svg width="225" height="225" version="1.1" xmlns="http://www.w3.org/2000/svg">
    <path desc="l 1 p 0" fill="rgb(252,253,255)" stroke="rgb(252,253,255)" stroke-width="1" opacity="1.0" d="M 0.5 0.0 L 103.0 0.5 Q 74.7 2.7 56.5 15.0 Q 42.1 23.1 31.0 34.5 L 15.0 56.5 Q 2.7 74.7 0.5 103.0 L 0.5 0.0 Z" />
    <path desc="l 0 p 0" fill="rgb(8,102,255)" stroke="rgb(8,102,255)" stroke-width="1" opacity="1.0" d="M 103.5 0.0 L 122.0 0.5 L 132.5 2.0 L 141.5 4.0 Q 155.6 6.9 166.0 13.5 Q 181.9 22.1 194.0 34.5 Q 204.3 44.7 211.0 58.5 Q 218.1 68.9 221.0 83.5 L 223.0 91.5 L 224.5 103.0 L 225.0 121.5 L 224.0 125.5 L 223.0 133.5 Q 219.5 154.0 210.0 168.5 Q 201.9 182.9 190.5 194.0 L 168.5 210.0 Q 151.6 221.1 126.5 224.0 L 126.0 147.5 L 157.0 146.5 L 163.0 113.5 L 159.5 112.0 L 153.5 112.0 L 127.5 112.0 L 126.0 112.5 Q 123.4 91.4 131.5 81.0 Q 135.3 76.3 143.5 76.0 Q 150.6 73.6 161.5 75.0 L 163.5 76.0 Q 166.8 74.3 165.0 67.5 L 165.0 44.5 L 153.0 42.5 L 127.5 42.0 L 117.5 44.0 Q 104.8 47.8 97.0 56.5 Q 88.5 66.0 86.0 81.5 L 84.5 113.0 Q 83.3 110.8 78.5 112.0 L 63.5 112.0 L 62.0 115.5 L 62.0 121.5 L 62.0 146.5 L 85.0 147.5 L 84.5 221.0 Q 65.3 217.2 52.0 207.5 L 31.0 190.5 Q 20.7 180.3 14.0 166.5 Q 6.9 156.1 4.0 141.5 L 2.0 133.5 L 0.5 122.0 L 0.0 103.5 L 1.0 99.5 L 2.0 91.5 Q 5.5 71.0 15.0 56.5 Q 23.1 42.1 34.5 31.0 L 56.5 15.0 Q 71.0 5.5 91.5 2.0 L 98.5 1.0 L 103.5 0.0 Z" />
    <path desc="l 1 p 1" fill="rgb(252,253,255)" stroke="rgb(252,253,255)" stroke-width="1" opacity="1.0" d="M 122.5 0.0 L 225.0 0.5 L 224.5 103.0 Q 222.3 74.7 210.0 56.5 Q 201.9 42.1 190.5 31.0 Q 171.6 11.9 141.5 4.0 L 129.5 1.0 L 124.5 1.0 Q 121.5 1.5 122.5 0.0 Z" />
    <path desc="l 1 p 2" fill="rgb(252,253,255)" stroke="rgb(252,253,255)" stroke-width="1" opacity="1.0" d="M 127.5 42.0 L 153.0 42.5 L 165.0 44.5 L 165.0 66.5 L 165.0 72.5 L 163.5 76.0 L 158.5 75.0 L 147.5 75.0 Q 146.3 77.3 141.5 76.0 Q 134.8 77.3 131.0 81.5 Q 123.5 92.0 126.0 112.5 L 127.5 112.0 L 152.5 112.0 L 158.5 112.0 Q 162.3 111.3 163.0 113.5 L 156.5 147.0 L 126.0 147.5 L 126.5 224.0 Q 151.9 221.4 168.5 210.0 Q 182.9 201.9 194.0 190.5 L 210.0 168.5 Q 222.3 150.3 224.5 122.0 L 225.0 224.5 L 0.5 225.0 L 0.0 122.5 L 1.0 122.5 L 1.5 130.0 L 3.0 137.5 L 6.0 149.5 L 15.0 168.5 Q 23.1 182.9 34.5 194.0 L 51.5 207.0 Q 64.9 217.1 84.5 221.0 L 85.0 147.5 L 62.0 146.5 L 62.0 121.5 L 62.0 115.5 L 63.5 112.0 L 78.5 112.0 Q 83.3 110.8 84.5 113.0 L 86.0 82.5 Q 88.5 64.0 99.5 54.0 Q 106.1 47.1 117.0 44.5 L 127.5 42.0 Z" />
</svg>