<svg xmlns="http://www.w3.org/2000/svg" version="1.1" xmlns:xlink="http://www.w3.org/1999/xlink" width="512" height="512" x="0" y="0" viewBox="0 0 48 48" style="enable-background:new 0 0 512 512" xml:space="preserve" class=""><g><path d="M35.5 34V16c0-.83-.67-1.5-1.5-1.5s-1.5.67-1.5 1.5v18c0 4.69-3.81 8.5-8.5 8.5s-8.5-3.81-8.5-8.5V11c0-3.03 2.47-5.5 5.5-5.5s5.5 2.47 5.5 5.5v21.5a2.5 2.5 0 0 1-5 0V13c0-.83-.67-1.5-1.5-1.5s-1.5.67-1.5 1.5v19.5c0 3.03 2.47 5.5 5.5 5.5s5.5-2.47 5.5-5.5V11c0-4.69-3.81-8.5-8.5-8.5s-8.5 3.81-8.5 8.5v23c0 6.34 5.16 11.5 11.5 11.5S35.5 40.34 35.5 34z" fill="#ffffff" opacity="1" class=""></path></g></svg>