<svg version="1.1" xmlns="http://www.w3.org/2000/svg" xmlns:xlink="http://www.w3.org/1999/xlink" width="50px" height="50px" viewBox="0,0,256,256"><g fill-opacity="0" fill="#dddddd" fill-rule="nonzero" stroke="none" stroke-width="1" stroke-linecap="butt" stroke-linejoin="miter" stroke-miterlimit="10" stroke-dasharray="" stroke-dashoffset="0" font-family="none" font-size="none" style="mix-blend-mode: normal"><path d="M0,256v-256h256v256z" id="bgRectangle"></path></g><g fill="#ffffff" fill-rule="nonzero" stroke="none" stroke-width="1" stroke-linecap="butt" stroke-linejoin="miter" stroke-miterlimit="10" stroke-dasharray="" stroke-dashoffset="0" font-family="none" font-size="none" style="mix-blend-mode: normal"><g transform="translate(-0.0048,256.06377) rotate(-90) scale(5.12,5.12)"><path d="M38.94922,3.00391c-0.77734,0.04297 -3.21484,0.11719 -6.92578,1.85547c-3.71094,1.73438 -8.80469,5.10938 -15.42969,11.73438c-6.625,6.625 -10.00391,11.72266 -11.73828,15.43359c-1.73438,3.70703 -1.8125,6.14453 -1.85547,6.92188v0.05078c0,0.89844 0.45313,1.51172 0.97656,2.19922c0.52344,0.68359 1.19141,1.38281 1.89062,2.05469c1.40234,1.34375 2.90234,2.54688 3.58984,3.03516c1.58203,1.13281 3.4375,0.86719 4.28125,-0.32031c0.60547,-0.84375 5.19531,-7.81641 5.88281,-8.95312c0,0 -0.00391,0 0,0c0.69922,-1.05859 0.41797,-2.31641 -0.21875,-3.48437c-0.48047,-0.87891 -1.83203,-3.23047 -2.22656,-3.91406c0.34375,-0.52344 1.67188,-2.47266 5.82031,-6.62109l0.00391,-0.00391v-0.00391c4.16406,-4.23437 6.10547,-5.5 6.60938,-5.81641c0.66797,0.38281 2.98047,1.71484 3.89063,2.21484c1.10938,0.66406 2.39063,0.87891 3.45703,0.26953l0.01172,-0.00391l0.00781,-0.00781c0.53516,-0.32031 2.52344,-1.61328 4.5625,-2.95312c1.01953,-0.66797 2.03125,-1.33594 2.83594,-1.86719c0.79297,-0.53125 1.32813,-0.88672 1.59375,-1.08594c1.18359,-0.84375 1.45313,-2.69531 0.32031,-4.28125c-0.48437,-0.67578 -1.68359,-2.20313 -3.03125,-3.61719c-0.67187,-0.70703 -1.375,-1.37891 -2.06641,-1.90234c-0.6875,-0.51953 -1.32031,-0.98047 -2.24219,-0.93359zM39.05078,5c-0.09375,0.00391 0.39063,0.12109 0.93359,0.53125c0.54688,0.41406 1.19531,1.02734 1.82422,1.6875c1.25781,1.32031 2.46094,2.85547 2.85156,3.40234c0.62109,0.86719 0.1875,1.46094 0.14844,1.48828l-0.01172,0.01172l-0.01172,0.00391c-0.08594,0.07031 -0.71875,0.5 -1.51953,1.03125c-0.79687,0.53125 -1.80469,1.19922 -2.82422,1.86328c-2.02344,1.32813 -4.12109,2.6875 -4.47266,2.90234h-0.00391c-0.15625,0.08594 -0.79687,0.12891 -1.4375,-0.25391l-0.01562,-0.01172l-0.01953,-0.00781c-0.91406,-0.5 -4.44531,-2.52734 -4.44531,-2.52734l-0.49609,-0.28516l-0.49609,0.28516c0,0 -2.61328,1.51563 -7.47266,6.46094c0,0 0,0.00391 -0.00391,0.00391c0,0 0,0 0,0.00391c-4.85547,4.85156 -6.44531,7.44141 -6.44531,7.44141l-0.30469,0.50391l0.29297,0.51172c0,0 2.02734,3.53125 2.52344,4.44531c0.41406,0.75781 0.30469,1.42578 0.30859,1.41406l-0.01172,0.01953l-0.01172,0.02344c-0.39844,0.66406 -5.55078,8.48047 -5.82031,8.85938c-0.02734,0.03906 -0.625,0.47266 -1.48828,-0.14844c-0.53906,-0.38281 -2.05859,-1.58984 -3.37109,-2.84766c-0.65234,-0.63281 -1.26562,-1.27734 -1.68359,-1.82812c-0.41406,-0.54687 -0.55859,-1.03906 -0.55859,-0.98047c0.04297,-0.89453 0.06641,-2.72656 1.66016,-6.12891c1.60937,-3.44531 4.83984,-8.36719 11.33984,-14.86719c6.5,-6.5 11.41797,-9.73047 14.86328,-11.33984c3.44531,-1.60937 5.29297,-1.62109 6.17969,-1.66797z"></path></g></g></svg>