<svg version="1.1" xmlns="http://www.w3.org/2000/svg" xmlns:xlink="http://www.w3.org/1999/xlink" width="128px" height="128px" viewBox="0,0,256,256"><g fill-opacity="0" fill="#dddddd" fill-rule="nonzero" stroke="none" stroke-width="1" stroke-linecap="butt" stroke-linejoin="miter" stroke-miterlimit="10" stroke-dasharray="" stroke-dashoffset="0" font-family="none" font-size="none" style="mix-blend-mode: normal"><path d="M0,256v-256h256v256z" id="bgRectangle"></path></g><g fill="#dc2626" fill-rule="nonzero" stroke="none" stroke-width="1" stroke-linecap="butt" stroke-linejoin="miter" stroke-miterlimit="10" stroke-dasharray="" stroke-dashoffset="0" font-family="none" font-size="none" style="mix-blend-mode: normal"><g transform="scale(2,2)"><path d="M64,15.21094c-4.7,0 -8.90977,2.43 -11.25977,6.5l-49.5293,85.78906c-2.35,4.07 -2.35,8.93 0,13c2.35,4.07 6.55977,6.5 11.25977,6.5h99.0586c4.7,0 8.90976,-2.43 11.25976,-6.5c2.35,-4.07 2.35,-8.93 0,-13l-49.52929,-85.78906c-2.35,-4.07 -6.55977,-6.5 -11.25977,-6.5zM64,21.21094c2.53,0 4.80055,1.31 6.06055,3.5l49.52929,85.78906c1.27,2.19 1.27,4.81 0,7c-1.27,2.19 -3.53054,3.5 -6.06054,3.5h-99.0586c-2.53,0 -4.80055,-1.31 -6.06055,-3.5c-1.27,-2.19 -1.27,-4.81 0,-7l49.5293,-85.78906c1.27,-2.19 3.53055,-3.5 6.06055,-3.5zM64,51c-1.66,0 -3,1.34 -3,3v30c0,1.66 1.34,3 3,3c1.66,0 3,-1.34 3,-3v-30c0,-1.66 -1.34,-3 -3,-3zM64,96c-1.66,0 -3,1.34 -3,3v5c0,1.66 1.34,3 3,3c1.66,0 3,-1.34 3,-3v-5c0,-1.66 -1.34,-3 -3,-3z"></path></g></g></svg>