<svg version="1.1" xmlns="http://www.w3.org/2000/svg" xmlns:xlink="http://www.w3.org/1999/xlink" width="24px" height="24px" viewBox="0,0,256,256"><g fill-opacity="0" fill="#dddddd" fill-rule="nonzero" stroke="none" stroke-width="1" stroke-linecap="butt" stroke-linejoin="miter" stroke-miterlimit="10" stroke-dasharray="" stroke-dashoffset="0" font-family="none" font-size="none" style="mix-blend-mode: normal"><path d="M0,256v-256h256v256z" id="bgRectangle"></path></g><g fill="#ffffff" fill-rule="nonzero" stroke="none" stroke-width="1" stroke-linecap="butt" stroke-linejoin="miter" stroke-miterlimit="10" stroke-dasharray="" stroke-dashoffset="0" font-family="none" font-size="none" style="mix-blend-mode: normal"><g transform="scale(10.66667,10.66667)"><path d="M5,3c-1.09853,0 -2,0.90147 -2,2v14c0,1.09853 0.90147,2 2,2h14c1.09853,0 2,-0.90147 2,-2v-0.12109c0.00969,-0.05623 0.00969,-0.1137 0,-0.16992v-13.70898c0,-1.09853 -0.90147,-2 -2,-2zM5,4h14c0.55747,0 1,0.44253 1,1v12.57617l-4.9375,-4.9375c-0.5827,-0.5827 -1.54195,-0.58217 -2.12305,0.00195c-0.00065,0 -0.0013,0 -0.00195,0l-0.93945,0.94531l-1.93555,-1.9375c-0.29085,-0.29095 -0.67746,-0.43557 -1.0625,-0.43555c-0.38504,0.00002 -0.77003,0.14428 -1.06055,0.43555l-3.93945,3.94141v-10.58984c0,-0.55747 0.44253,-1 1,-1zM16,7c-0.55228,0 -1,0.44772 -1,1c0,0.55228 0.44772,1 1,1c0.55228,0 1,-0.44772 1,-1c0,-0.55228 -0.44772,-1 -1,-1zM9,12.20508c0.12637,-0.00009 0.25341,0.05029 0.35352,0.15039l4.70703,4.70703c0.12541,0.13062 0.31163,0.18324 0.48685,0.13756c0.17522,-0.04568 0.31206,-0.18251 0.35774,-0.35774c0.04568,-0.17522 -0.00694,-0.36145 -0.13756,-0.48685l-2.0625,-2.0625l0.94336,-0.94727c0.19897,-0.19828 0.50828,-0.19875 0.70703,0l5.64453,5.64453v0.00977c0,0.55747 -0.44253,1 -1,1h-14c-0.55747,0 -1,-0.44253 -1,-1v-1.99609l4.64844,-4.64844c0.09948,-0.09974 0.22519,-0.1503 0.35156,-0.15039z"></path></g></g></svg>