<svg version="1.1" xmlns="http://www.w3.org/2000/svg" xmlns:xlink="http://www.w3.org/1999/xlink" width="50px" height="50px" viewBox="0,0,256,256"><g fill="#fff" fill-rule="nonzero" stroke="none" stroke-width="1" stroke-linecap="butt" stroke-linejoin="miter" stroke-miterlimit="10" stroke-dasharray="" stroke-dashoffset="0" font-family="none" font-weight="none" font-size="none" text-anchor="none" style="mix-blend-mode: normal"><g transform="scale(5.12,5.12)"><path d="M25,2c-12.6907,0 -23,10.3093 -23,23c0,12.69071 10.3093,23 23,23c12.69071,0 23,-10.30929 23,-23c0,-12.6907 -10.30929,-23 -23,-23zM25,4c11.60982,0 21,9.39018 21,21c0,11.60982 -9.39018,21 -21,21c-11.60982,0 -21,-9.39018 -21,-21c0,-11.60982 9.39018,-21 21,-21zM25,6c-10.48157,0 -19,8.51843 -19,19c0,10.48157 8.51843,19 19,19c10.48157,0 19,-8.51843 19,-19c0,-10.48157 -8.51843,-19 -19,-19zM25,8c9.40069,0 17,7.59932 17,17c0,9.40069 -7.59931,17 -17,17c-9.40068,0 -17,-7.59931 -17,-17c0,-9.40068 7.59932,-17 17,-17zM24,13c-0.552,0 -1,0.448 -1,1v13c0,0.552 0.448,1 1,1h2c0.552,0 1,-0.448 1,-1v-13c0,-0.552 -0.448,-1 -1,-1zM24,32c-0.552,0 -1,0.448 -1,1v2c0,0.552 0.448,1 1,1h2c0.552,0 1,-0.448 1,-1v-2c0,-0.552 -0.448,-1 -1,-1z"></path></g></g></svg>