<svg version="1.1" xmlns="http://www.w3.org/2000/svg" xmlns:xlink="http://www.w3.org/1999/xlink" width="20px" height="20px" viewBox="0,0,256,256"><g fill="#ffffff" fill-rule="nonzero" stroke="none" stroke-width="1" stroke-linecap="butt" stroke-linejoin="miter" stroke-miterlimit="10" stroke-dasharray="" stroke-dashoffset="0" font-family="none" font-weight="none" font-size="none" text-anchor="none" style="mix-blend-mode: normal"><g transform="scale(2,2)"><path d="M56.1,101.9c-1.2,-1.2 -3.1,-1.2 -4.2,0l-14.9,14.9v-80.8c0,-1.7 -1.3,-3 -3,-3c-1.7,0 -3,1.3 -3,3v80.8l-14.9,-14.9c-1.2,-1.2 -3.1,-1.2 -4.2,0c-1.2,1.2 -1.2,3.1 0,4.2l20,20c0.6,0.6 1.4,0.9 2.1,0.9c0.7,0 1.5,-0.3 2.1,-0.9l20,-20c1.2,-1.2 1.2,-3 0,-4.2zM116.1,21.9l-20,-20c-1.2,-1.2 -3.1,-1.2 -4.2,0l-20,20c-1.2,1.2 -1.2,3.1 0,4.2c1.2,1.2 3.1,1.2 4.2,0l14.9,-14.9v80.8c0,1.7 1.3,3 3,3c1.7,0 3,-1.3 3,-3v-80.8l14.9,14.9c0.6,0.6 1.4,0.9 2.1,0.9c0.7,0 1.5,-0.3 2.1,-0.9c1.2,-1.2 1.2,-3 0,-4.2z"></path></g></g></svg>