<svg version="1.1" xmlns="http://www.w3.org/2000/svg" xmlns:xlink="http://www.w3.org/1999/xlink" width="64px" height="64px" viewBox="0,0,256,256"><g fill="#fff" fill-rule="nonzero" stroke="none" stroke-width="1" stroke-linecap="butt" stroke-linejoin="miter" stroke-miterlimit="10" stroke-dasharray="" stroke-dashoffset="0" font-family="none" font-weight="none" font-size="none" text-anchor="none" style="mix-blend-mode: normal"><g transform="scale(4,4)"><path d="M32.01953,8.95703c-12.66,0 -22.95898,10.30094 -22.95898,22.96094c0,12.66 10.29898,22.95898 22.95898,22.95898c12.661,0 22.96094,-10.29898 22.96094,-22.95898c0,-12.66 -10.29994,-22.96094 -22.96094,-22.96094zM32.01953,12.95508c10.455,0 18.96094,8.50694 18.96094,18.96094c0,10.454 -8.50594,18.96094 -18.96094,18.96094c-10.454,0 -18.95898,-8.50694 -18.95898,-18.96094c0,-10.454 8.50498,-18.96094 18.95898,-18.96094zM32.01953,21.79102c-5.56851,0 -10.125,4.55649 -10.125,10.125c0,5.56851 4.55649,10.125 10.125,10.125c5.56881,0 10.125,-4.55725 10.125,-10.125c0,-5.56775 -4.55619,-10.125 -10.125,-10.125zM32.01953,25.79102c3.40719,0 6.125,2.71875 6.125,6.125c0,3.40625 -2.71781,6.125 -6.125,6.125c-3.40749,0 -6.125,-2.71751 -6.125,-6.125c0,-3.40749 2.71751,-6.125 6.125,-6.125z"></path></g></g></svg>