<svg version="1.1" xmlns="http://www.w3.org/2000/svg" xmlns:xlink="http://www.w3.org/1999/xlink" width="50px" height="50px" viewBox="0,0,256,256"><g fill-opacity="0" fill="#dddddd" fill-rule="nonzero" stroke="none" stroke-width="1" stroke-linecap="butt" stroke-linejoin="miter" stroke-miterlimit="10" stroke-dasharray="" stroke-dashoffset="0" font-family="none" font-size="none" style="mix-blend-mode: normal"><path d="M0,256v-256h256v256z" id="bgRectangle"></path></g><g fill="#ffffff" fill-rule="nonzero" stroke="none" stroke-width="1" stroke-linecap="butt" stroke-linejoin="miter" stroke-miterlimit="10" stroke-dasharray="" stroke-dashoffset="0" font-family="none" font-size="none" style="mix-blend-mode: normal"><g transform="scale(5.12,5.12)"><path d="M5,9c-2.75,0 -5,2.25 -5,5v22c0,2.75 2.25,5 5,5h27c2.75,0 5,-2.25 5,-5v-5.34375l11.53125,6.21875l1.46875,0.8125v-25.375l-1.46875,0.8125l-11.53125,6.21875v-5.34375c0,-2.75 -2.25,-5 -5,-5zM5,11h27c1.66797,0 3,1.33203 3,3v22c0,1.66797 -1.33203,3 -3,3h-27c-1.66797,0 -3,-1.33203 -3,-3v-22c0,-1.66797 1.33203,-3 3,-3zM48,15.65625v18.6875l-11,-5.9375v-6.8125z"></path></g></g></svg>